<?xml version="1.0" encoding="utf-8"?>
<!-- Generator: Adobe Illustrator 19.0.0, SVG Export Plug-In . SVG Version: 6.00 Build 0)  -->
<svg version="1.1" xmlns="http://www.w3.org/2000/svg" xmlns:xlink="http://www.w3.org/1999/xlink" x="0px" y="0px"
	 viewBox="0 0 1417.3 1417.3" style="enable-background:new 0 0 1417.3 1417.3;" xml:space="preserve">
<style type="text/css">
	.st0{fill:url(#XMLID_5_);}
	.st1{fill:url(#XMLID_6_);}
	.st2{fill:#939393;}
	.st3{fill:#272727;}
	.st4{fill:#9E9E9E;}
	.st5{fill:#9A9A9A;}
	.st6{fill:#909090;}
	.st7{fill:#323232;}
	.st8{fill:#343434;}
	.st9{fill:#9B9B9B;}
	.st10{fill:#8A8A8A;}
	.st11{fill:#E3E3E3;}
	.st12{fill:#3C3C3C;}
	.st13{fill:#EBEBEB;}
	.st14{fill:#818181;}
	.st15{fill:#424242;}
	.st16{fill:#232323;}
	.st17{fill:#8E8E8E;}
	.st18{fill:#848484;}
	.st19{fill:#5D5D5D;}
	.st20{fill:#747474;}
	.st21{fill:#7F7F7F;}
	.st22{fill:#303030;}
	.st23{fill:#4D4D4D;}
	.st24{fill:#727272;}
	.st25{fill:#878787;}
	.st26{fill:#9D9D9D;}
	.st27{fill:#636363;}
	.st28{fill:#989898;}
	.st29{fill:#D0D0D0;}
	.st30{fill:#A2A2A2;}
	.st31{fill:#888888;}
	.st32{fill:#898989;}
	.st33{fill:#ADADAD;}
	.st34{fill:#3D3D3D;}
	.st35{fill:#AFAFAF;}
	.st36{fill:#BCBCBC;}
	.st37{fill:#D8D8D8;}
	.st38{fill:#C3C3C3;}
	.st39{fill:#767676;}
	.st40{fill:#828282;}
	.st41{fill:#686868;}
	.st42{fill:#C4C4C4;}
	.st43{fill:#B8B8B8;}
	.st44{fill:#D1D1D1;}
	.st45{fill:#D9D9D9;}
	.st46{fill:#E6E6E6;}
	.st47{fill:#505050;}
	.st48{fill:#C6C6C6;}
	.st49{fill:#838383;}
	.st50{fill:#373737;}
	.st51{fill:#565656;}
	.st52{fill:#777777;}
	.st53{fill:#797979;}
	.st54{fill:#353535;}
	.st55{fill:#E5E5E5;}
	.st56{fill:#979797;}
	.st57{fill:#1F1F1F;}
	.st58{fill:#B0B0B0;}
	.st59{fill:#A6A6A6;}
	.st60{fill:#969696;}
	.st61{fill:#A3A3A3;}
	.st62{fill:#616161;}
	.st63{fill:#757575;}
	.st64{fill:#F1F1F1;}
	.st65{fill:#676767;}
	.st66{fill:#ACACAC;}
	.st67{fill:#BFBFBF;}
	.st68{fill:#D2D2D2;}
	.st69{fill:#919191;}
	.st70{fill:#444444;}
	.st71{fill:#6A6A6A;}
	.st72{fill:#5F5F5F;}
	.st73{fill:#494949;}
	.st74{fill:#1A1A1A;}
	.st75{fill:#DBDBDB;}
	.st76{fill:#D3D3D3;}
	.st77{fill:#F3F3F3;}
	.st78{fill:#9C9C9C;}
	.st79{fill:#E2E2E2;}
	.st80{fill:#B6B6B6;}
	.st81{fill:#ABABAB;}
	.st82{fill:#7C7C7C;}
	.st83{fill:#858585;}
	.st84{fill:#575757;}
	.st85{fill:#8F8F8F;}
	.st86{fill:#B1B1B1;}
	.st87{fill:#292929;}
	.st88{fill:#7B7B7B;}
	.st89{fill:#CECECE;}
	.st90{fill:#D7D7D7;}
	.st91{fill:#454545;}
	.st92{fill:#737373;}
	.st93{fill:#6D6D6D;}
	.st94{fill:#BEBEBE;}
	.st95{fill:#EEEEEE;}
	.st96{fill:#A0A0A0;}
	.st97{fill:#C5C5C5;}
	.st98{fill:#EDEDED;}
	.st99{fill:#6F6F6F;}
	.st100{fill:#434343;}
	.st101{fill:#2F2F2F;}
	.st102{fill:#5B5B5B;}
	.st103{fill:#1D1D1D;}
	.st104{fill:#D4D4D4;}
	.st105{fill:#E0E0E0;}
	.st106{fill:url(#XMLID_7_);}
	.st107{fill:#B7B7B7;}
	.st108{fill:#BDBDBD;}
	.st109{fill:#E9E9E9;}
	.st110{fill:#3A3A3A;}
	.st111{fill:#959595;}
	.st112{fill:#4B4B4B;}
	.st113{fill:#4E4E4E;}
	.st114{fill:#474747;}
	.st115{fill:#2E2E2E;}
	.st116{fill:#9F9F9F;}
	.st117{fill:#585858;}
	.st118{fill:#646464;}
	.st119{fill:#545454;}
	.st120{fill:url(#XMLID_11_);}
</style>
<g id="Layer_1">
	<linearGradient id="XMLID_5_" gradientUnits="userSpaceOnUse" x1="436.3586" y1="774.0521" x2="436.3586" y2="539.7174">
		<stop  offset="0" style="stop-color:#27348B"/>
		<stop  offset="0.5074" style="stop-color:#D1CFE9"/>
		<stop  offset="0.7162" style="stop-color:#827FBC"/>
		<stop  offset="0.9112" style="stop-color:#404596"/>
		<stop  offset="1" style="stop-color:#27348B"/>
	</linearGradient>
	<path id="XMLID_13_" class="st0" d="M327.1,659c0-70.7,53.3-119.3,124-119.3c45.4,0,76,19,94.5,44.9l-51.2,40.1
		c-9.5-15.3-24.8-24.3-43.8-24.3c-31.1,0-51.2,24.8-51.2,58.6c0,33.2,14.8,54.9,45.9,54.9c21.1,0,33.3-9,42.7-16.9l40.1,45.9
		c-18.5,18.5-44.9,31.1-82.9,31.1C376.2,774.1,327.1,729.2,327.1,659z"/>
	<linearGradient id="XMLID_6_" gradientUnits="userSpaceOnUse" x1="1159.441" y1="774.0521" x2="1159.441" y2="539.7174">
		<stop  offset="0" style="stop-color:#27348B"/>
		<stop  offset="0.5074" style="stop-color:#D1CFE9"/>
		<stop  offset="0.7162" style="stop-color:#827FBC"/>
		<stop  offset="0.9112" style="stop-color:#404596"/>
		<stop  offset="1" style="stop-color:#27348B"/>
	</linearGradient>
	<path id="XMLID_21_" class="st1" d="M1062.3,727.6l48-33.8c12.7,17.9,26.9,25.9,49.6,25.9c21.1,0,26.9-6.3,26.9-13.7
		c0-9.5-9-10.6-42.2-25.9c-30.6-14.3-51.2-32.7-51.2-68.1c0-47,35.9-72.3,84.4-72.3c35.4,0,61.8,13.7,78.6,33.3l-45.4,38
		c-7.9-10-16.4-17.9-33.3-17.9c-12.1,0-20.6,5.3-20.6,13.7c0,8.4,9,12.7,32.2,22.7c38,16.4,63.3,31.1,63.3,73.9
		c0,41.7-31.7,70.7-94.5,70.7C1112.5,774.1,1079.7,755.1,1062.3,727.6z"/>
	<g id="XMLID_177_">
		<path id="XMLID_225_" class="st2" d="M660.4,295.3c-3.5,1-7,2-10.5,3c5.6,12.3,16.6,18.9,27.6,24.7c17.3,9,32.8,20.5,48.2,32.1
			c8.5,6.3,17,11.8,27.3,14.1c5.9,0.4,11.9,1.5,17.8,0.7c6.3-0.8,11.9,0.7,16.9,4.3c23.9,17,48.7,32.9,68.9,54.5
			c2.5,2.7,4.7,5.9,9,5.9c13.9,1.6,27.7,0.5,41.6,0c4.5-3.6,2.3-6.5-1.1-8.8c-20.2-13.8-37.5-31.3-57.4-45.5
			c-8.7-6.2-17.1-12.9-25.7-19.3c-7.7-5.7-18-2.9-27.2-4.3c-14.1,3.1-21.4-8.9-31.3-14.7c-26.5-15.4-49.5-36.3-77.6-49.2
			C678,292.5,669.4,296.6,660.4,295.3z"/>
		<path id="XMLID_224_" class="st3" d="M885.2,457.9c14.5,1.7,29.3,1.6,43.5,5.9c3.1,4.8,8.3,5.8,13.2,7.4
			c22.9,7.5,44.3,17.2,59.4,37.2c2.4,3.2,6,5.5,9.8,7.2c5.3-0.1,10.2-0.7,15.5,2.6c4.8,3,10.8,2.4,11.4-5.8
			c-4.3-11.9-13.1-21-20.2-31.1c-15.3-19.2-35.2-31.6-58.2-39.2c-30.7-10.2-62.5-8.7-94.1-8.2c-13.8,0.2-27.6,1.2-41,4.8
			c-2.9,1.7-4.6,4-2.9,7.4c1.5,3.1,4.6,4.1,7.6,3.3c18.3-4.8,35.8,4.3,51.2,2.2c4.2,0.3,3.5-1.5,3.4,0c-0.1,1.5,1-0.2-0.5,0
			c-1.8,0.3-3.5-0.4-5.3-0.2c-2.9,0.2-5.6,1.1-5.2,4.3c0.4,2.9,3.5,1.9,5.6,2.3C880.8,458.7,883,458.5,885.2,457.9z"/>
		<path id="XMLID_223_" class="st4" d="M902.6,503.7c-3.5,4.8-1.3,11.5-5.4,16c-2.6,2.8-1.6,5.2,0.7,7.6
			c37.1-4.5,68,14.5,100.8,26.5c4.2,1.5,7.6,4.5,11.1,7.5c6.7,5.7,13.4,4.9,20.5-1.6c0.2-12.3-2.9-23.5-11.5-32.8
			c-23.2-14.1-49.8-19.9-74.6-30.2c-8.8-3.7-18.9-4.4-28.3-6.9c-5.9-1.5-9.1,1.5-10.9,6.9C904.1,499,905.5,502,902.6,503.7z"/>
		<path id="XMLID_222_" class="st5" d="M753.8,365.8c-7.5-1-13.3-6.1-18.1-10.5c-12.5-11.5-27.1-19.9-41-28.9
			c-14.7-9.5-29.3-19.6-44.8-28c-6.6,0.9-12.9,2-9.3,11.3c1.5,0.4,2.6,1.3,3.3,2.7c7.2,9.7,16.7,17.1,25,25.8
			c4.3,4.5,7.4,9.2,10.1,14.6c8,7.8,14.4,17.1,22.6,24.7c2.9,2.7,6.2,5.4,10.4,6.2c3.9-0.6,8-0.4,11.6-2.1c3.8-2.4,8-3.3,12.5-4.1
			c6.6-1.2,14.5-0.6,18.5-8.2C754.8,367.9,754.5,366.8,753.8,365.8z"/>
		<path id="XMLID_221_" class="st6" d="M902.6,503.7c15-18.1,30.4-2.9,44.5,0.9c23.6,6.4,46.3,16,69.4,24.2c4.3-4.7,0.8-9-2-11.5
			c-8.5-7.6-14.8-17.5-24.6-23.7c-13.5-0.6-24.4-7.9-35.9-13.7c-12.4-6.3-26.5-6.6-39.2-11.6c-4-1.6-7.1,0.9-9.1,4.6
			C904.6,483.1,903.6,493.4,902.6,503.7z"/>
		<path id="XMLID_220_" class="st7" d="M885.2,457.9c-2.5-0.4-5-0.9-7.5-1.3c0.1-0.6,0.2-1.2,0.3-1.8c6.5,0.5,13,1.1,21.6,1.7
			c-7.7-5.8-14.3-7.7-21.4-8.8c-16.8-2.6-33.3-9.3-50.7-3.2c-2.1,0.7-3.7,0-3.1-2.8c-9.6-6.5-19.3,0.2-29,0.2c-3.5,0-7.2,1.8-11,2
			c-4.5,1.1-8.1,3.4-10.6,7.4c-1.8,7.3,1.5,10.4,8.6,10.7c13.5,0.6,27,5.5,40.4-0.6c3.4-1.5,6.2,2.2,9.6,1.4
			C850.1,461.3,867.6,459.6,885.2,457.9z"/>
		<path id="XMLID_219_" class="st8" d="M997,457.5c-40.6-40.2-80.6-81-121.9-120.5c-29.1-27.8-65.7-40.7-105-46.4
			c-18.9-2.7-38-3.1-57.1-2.3c-0.5,3.7,2.2,4.5,4.8,5.4c10.6,2.2,21,5.2,32,4.1c12.8,0.2,25.1,4.5,37.8,5
			c32.3,9.3,62.5,22.7,86.6,46.9c15.1,15.2,31.8,28.8,47.2,43.7c2.1,2,4.2,3.9,5.7,6.4c16.5,20.6,36.7,37.2,56.6,54.3
			C987.9,455.7,991,462,997,457.5z"/>
		<path id="XMLID_218_" class="st9" d="M700,392.9c23.4,29.5,48.2,57.7,74.5,84.7c10.4-7.3,1.6-15,0.3-22.5c0.2-3.8,0-7.4-2.1-10.7
			c-16.8-13-31.1-28.4-44.3-44.9c-1.9-2.3-4.2-4.2-7-5.4c-3.9-1-7.7-2.3-11.4-4C705.8,388.1,702.3,388.2,700,392.9z"/>
		<path id="XMLID_217_" class="st10" d="M700,392.9c7.3-2.2,12.5,6.1,19.8,3.8c2.9-4.8-0.5-8.2-3.5-10.4c-14-10.7-23.2-25.6-35-38.2
			c-5.8-5.3-10.8-11.3-16.7-16.5c-6.4,1.8-11.8-8.6-18.7-1.6C662.9,351.9,681.3,372.5,700,392.9z"/>
		<path id="XMLID_216_" class="st11" d="M997,457.5c-5.4,0.5-9.1-2.6-12.8-5.9c-14.1-10.6-28.8-19.7-47.4-19.8
			c-3.5,0-6.2-2.4-9.2-3.6c-2.6-0.5-5.3-0.8-8-0.7c-3.7,1.5-8,1.4-11.1,4.4c-14.9-0.2-29.8-0.4-44.7-0.6
			c-10.6-5.2-21.2-3.3-31.7,0.2c-8.2,1.6-16.7,1.7-24.8,3.9c-5,4-11.3,3.3-17,4.9c-7.1,2-7.8,3.8-4.8,9.4
			c13.1-1.9,25.5-7.3,38.9-8.1c27.1-3.1,53.9-7.8,81.5-5.7c42.3,3.2,80.3,16.2,112,45.3c1.2-9.7-7.8-11.8-12.9-16.6
			C1002.5,462.3,998.4,461.4,997,457.5z"/>
		<path id="XMLID_215_" class="st12" d="M1038.1,512.5c-5.4,3.4-9.6,2.2-13.2-3.1c-2.5-3.6-6.9-3.2-10.3-2.8
			c-3.8,0.5,0.2,4.7-1.7,6.6c3.8,13.4,12.8,24.7,16.1,38.3c5.8,5,14.1,1.5,20.3,5.6c0.9,0.6,2.1-1.5,1.6-3.2
			C1049.3,539.3,1045.6,525.3,1038.1,512.5z"/>
		<path id="XMLID_214_" class="st13" d="M1030.5,550.6c-4.1-13.3-10.4-25.6-17.8-37.4c-21.9-26.8-50-43.3-84.1-49.4
			c-1.6,0.6-3.3,1.1-4.9,1.7c-0.9,5.2,3.1,6.8,6.5,7.1c12.5,1.1,23.4,6.9,34.1,12.3c8.2,4.2,16.4,7.9,25.2,10.5
			c11.1,9.4,21.5,19.4,27,33.3c6.4,9.2,9.1,19.8,10.9,30.7c-4.1,8.3-3.4,17-1.6,25.7c3,14.4-4.1,27.5-5.1,41.4
			c-0.2,5.7-2.8,10.7-4.1,16c-1.3,5.4-1.7,10.4,5.2,12.4c5.4-0.6,7.2-4.8,8.5-9.2c1.7-6.1,4.2-12,5.7-18.1c2.1-13,1.6-26.3,2.9-39.4
			c5.5-8.2-0.8-15.8-1.2-23.7C1038.2,558.5,1035.5,554,1030.5,550.6z"/>
		<path id="XMLID_213_" class="st14" d="M989.5,495.4c-19-16.4-42.2-23.4-65.7-29.9c-3.6-0.4-7.2-0.5-10.8-1.1
			c-7.4-1.4-9.1,2-7.4,8.5c16.4,0.5,31.6,5.7,46.5,12.1C964.1,490,975,499.4,989.5,495.4z"/>
		<path id="XMLID_212_" class="st15" d="M774.2,453.6c0.1,8,0.2,16,0.3,24c2.6,0.2,5.6,1.5,7.6,0.5c16-7.8,33.6-10,50.3-15.1
			c1.1-8.4-5.6-5.8-8.6-4.9c-15.5,4.5-30.4-2.4-45.6-1.9c-0.7,0-1.5-1.5-2.2-2.3C775.6,453,775,452.9,774.2,453.6z"/>
		<path id="XMLID_211_" class="st16" d="M934.2,737.4c1.4,0.2,2.7,0.3,4.1,0.5c6.1-1.1,12.2-2.2,18.3-3.2
			c33.3-7.7,66.6-15.2,99-26.2c-0.4-8.1-5.6-7.2-11-5.8c-3.4,1.7-7.3,1.1-10.8,2c-14.2,6.8-29.5,9.6-44.8,12
			c-16.5,2.6-33,4.7-48.6,11.1c-4.9,1.9-11.3,0.9-13.8,7.3C928,739.1,931.1,738.2,934.2,737.4z"/>
		<path id="XMLID_210_" class="st17" d="M1030.5,627.1c-2.9,8.9-5.9,17.7-8.8,26.6c-8.9,4.1-11.2,10.5-6.7,19.3
			c6.6,4.5,12.2,2.7,17.3-2.7c3.6-11,7.2-21.9,10.8-32.9C1041.2,631.2,1036.8,627.9,1030.5,627.1z"/>
		<path id="XMLID_209_" class="st18" d="M1044.1,707c3.9-0.3,8-2.2,11.5,1.4c7.2-0.8,8.3-4.1,3.5-9.2c-8.4-8.8-15.3-19-24.9-26.6
			c-8.4,1-8.4,5-4.2,11.1c3.7,5.2,6.4,11,6.6,17.6C1037.7,704.9,1041.3,705.5,1044.1,707z"/>
		<path id="XMLID_208_" class="st19" d="M1033.7,564.6c-1.9,6.9,4.5,13.4,1,20.5c1,3.7-0.6,7.4,0.1,11c5.1,2.4,10.1,5.1,15.7,5.8
			c1.4-11.4,3.6-22.8,1.3-34.4c-0.7-0.2-1.4-0.4-1.8-1C1042.7,555.2,1042.7,555.2,1033.7,564.6z"/>
		<path id="XMLID_207_" class="st20" d="M1050.5,601.9c-0.4-1.4-1.2-2.8-1.2-4.1c0-3.8-0.3-6.7-5-8.1c-6.3-1.8-6,3.7-8.3,6.3
			c-5.5,16.6-4,23.6,6.2,28.4c1.4,0.7,2.9,0.5,4.3-0.3C1048.4,616.8,1050.8,609.6,1050.5,601.9z"/>
		<path id="XMLID_206_" class="st21" d="M1046.5,624.2c-2.5-4.2-3.9-8.3-9.4-11.1c-6.2-3.2-0.8-11.1-1.1-17c0-3.7,0.5-7.5-1.3-11
			c-1.4,14-2.8,28-4.2,42.1c-1,9.7,7.3,8.2,12.6,10.3C1044.2,633,1045.4,628.6,1046.5,624.2z"/>
		<path id="XMLID_205_" class="st22" d="M898.8,526.6c-0.6-2.3-1.1-4.6-1.7-6.9c-7.1-7.5-15.6-11-26-8.7c-2,6.1,2.7,10.1,4.7,14.9
			c5.3,5.2,8,13.6,17,14.3C900.4,538.1,900.5,532.7,898.8,526.6z"/>
		<path id="XMLID_204_" class="st23" d="M1033.7,564.6c0.3,0.3,0.6,0.8,0.8,0.7c7.2-3.1,10.3,2.8,14.8,6.3c1.1,0.9,1.9-2.5,2.6-4.1
			c0.3-4.6,0.9-9.2-1.1-13.5c-5.7-7.4-12.1-10.4-20.2-3.4C1030.3,555.6,1034.8,559.4,1033.7,564.6z"/>
		<path id="XMLID_203_" class="st24" d="M1040.6,700.6c2.4-7.6-5.1-11.7-6.4-18.1c-0.7-3.4-4.2-6.5-0.1-9.9
			c-0.6-0.8-1.2-1.6-1.8-2.3c-5.5,0.4-11,0.7-16.5,1.1c-1.7,1-2.6,2.4-3,4.3C1017.4,689.1,1030.3,700.7,1040.6,700.6z"/>
		<path id="XMLID_202_" class="st20" d="M646,330c4.2,2.1,8.8,3.6,12.4,6.4c4.5,3.4,4.4-1.4,6.2-2.7c-4.5-10.9-13.5-18.2-21.2-26.6
			c-1,0.8-1.9,1.6-2.9,2.4C642.1,316.4,640.3,324.2,646,330z"/>
		<path id="XMLID_201_" class="st25" d="M870,574.2c-1.8,31.3-5.1,62.4-9.8,93.4c-1.2,3.1-3.5,6.6,2.3,7.7c8.4-7,6.8-17.4,9-26.5
			c0.3-3.5,1.8-6.7,2.6-10c1.8-22.8-1.3-45.7,1.4-68.5c-0.4-1.3-1.1-2.5-2.2-3.4C867.7,567.4,869.5,571.1,870,574.2z"/>
		<path id="XMLID_200_" class="st26" d="M870,574.2c1-2.3,1.9-4.5,2.9-6.8c1.7-0.4,2.9-1.6,3.6-3.2c3.3-5.8,2.8-12,2.1-18.4
			c-0.8-7.7-2.4-15.4-0.2-23.1c-2.4-3.9-4.9-7.8-7.3-11.7c-2.8,0.8-3.1,3.2-3,5.3C868.7,535.7,869.4,554.9,870,574.2z"/>
		<path id="XMLID_199_" class="st27" d="M717.1,290.9c-1.4-0.8-2.8-1.7-4.2-2.5c-17.8,0.1-35.2,3.3-52.5,6.9
			c9,3.4,17.9-1.4,26.9-0.5c4.9-0.1,9.2,2.5,13.8,3.6c5.8,1.2,10.7-1.1,15.5-4.1C717.4,293.3,717.6,292.1,717.1,290.9z"/>
		<path id="XMLID_198_" class="st28" d="M861.6,674.8c-0.5-2.4-0.9-4.8-1.4-7.1c-3.6,16.3-7.2,32.6-10.8,48.9c-0.6,2.9,1,3.4,3.3,3
			c7.4-5.2,8.2-13.8,9.6-21.5c1.1-6.1,1.9-12.3,2.3-18.6C864.4,677.4,863.6,675.7,861.6,674.8z"/>
		<path id="XMLID_197_" class="st29" d="M1054.7,604.2c0.8-10.2,1.6-20.3,2.5-30.5c-0.4,0-0.8-0.1-1.3-0.1
			c-0.8,10.2-1.6,20.3-2.5,30.5C1053.8,604.1,1054.2,604.1,1054.7,604.2z"/>
		<path id="XMLID_196_" class="st30" d="M831.8,435.5c10.7-1.4,21.4-2.7,32.1-4.1c-4-8.4-9.3-15.6-16.9-21.1
			c-17.1-12.5-34.2-25-51-38c-10.2-7.9-20.8-10.8-33.3-7.1c-2.8,0.8-5.9,0.4-8.9,0.5c-0.1,0.7-0.1,1.5-0.2,2.2
			c-0.5,4.8,2.5,8,5.7,10.3c18.9,13.5,34.7,31,54.7,43C820.7,425.4,822.5,435.1,831.8,435.5z"/>
		<path id="XMLID_195_" class="st31" d="M716.8,292.7c-5.4-0.2-10.8-1.4-16.1,0.9c1.1,6.8,7.4,9.3,11.8,12.6
			c14.5,10.8,28.7,22.2,45.1,30.3c4.8,2.3,8.1,6.3,12.2,9.3c7.9,5.7,15.8,11.1,25.1,14.2c14.8-0.6,26.9,4.2,38.1,14.6
			c19.2,17.9,42.6,31,60.4,50.7c4.1,4.6,10.4,3.6,15.1,6.6c3.8,0.3,7.5,0.7,11.3,1c3.3-5.4-0.8-8.4-3.9-11.4
			c-20.4-20-43.2-37.1-66.4-53.8c-9.6-6.9-19.9-11.5-31.6-13.3c-7.2-1.1-13.1-4.6-19-9c-22-16.7-45.8-30.8-67.8-47.5
			C727.1,294.9,722.3,292.5,716.8,292.7z"/>
		<path id="XMLID_194_" class="st32" d="M794.9,360.1c-2.7-7.8-10.5-10.4-16.3-14.5c-22.8-16.3-47.1-30.5-68.4-48.8
			c-2.7-2.3-6.1-2.6-9.4-3.1c-4.5-0.1-9.2-1.1-13.5,1.2c23,18.5,47.1,35.2,73,49.4c4.2,2.3,7.9,5.8,11.3,9.2
			C778.2,360.1,785.7,362.9,794.9,360.1z"/>
		<path id="XMLID_193_" class="st33" d="M898.8,526.6c-2.9,3.4-1.6,9.7-7.7,10.9c-3,7.8,3.5,7.7,7.7,8.7
			c34.9,8.5,67.2,24.3,100.8,36.6c6.7,2.4,12.9,5.8,19.1,9.3c8.6,4.9,10.8,3.3,11-7.6c0.8-8.5,0.4-16.9-2.5-25
			c-7.9-0.5-14.2-4.6-21.1-8.1c-28.9-14.9-60-23.9-91.2-32.5C906.8,516.5,901.4,518.1,898.8,526.6z"/>
		<path id="XMLID_192_" class="st34" d="M893.1,743.1c5.2-0.3,10.3-0.5,15.5-0.8c6.8-1,13.7-2,20.5-3c1.7-0.7,3.4-1.3,5-2
			c-2.3-0.9-4.6-1.8-6.9-2.7c-0.7-2.8-2.8-5.2-5.4-4.9c-13.4,1.4-27.3,0.7-38.7,10C884.9,745.7,889.3,743.5,893.1,743.1z"/>
		<path id="XMLID_191_" class="st35" d="M831.8,435.5c-0.8-2.7,6.4-1.9,2.8-4.9c-18.7-15.3-39.1-28.4-56.7-45.1
			c-7.3-6.9-15.4-12.6-24.2-17.5c-10.9,2.4-22,4-32.4,8.6c0.5,7.1,6.3,9.8,11.1,13c11.4,7.8,21.6,17.2,32.8,25.2
			c10.5,7.6,21.5,14.4,30.9,23.5c3.3,3.2,8.5,1.6,12.8,2C816.7,439.5,824.5,438.7,831.8,435.5z"/>
		<path id="XMLID_190_" class="st36" d="M808.8,440.4c-5.3-2.7-9.7-6.6-14.3-10.3c-23.7-18.7-46.8-38.4-73.3-53.4
			c-3.1,1.3-6.2,2.6-9.3,3.8c-1.5,4.7,2.7,6.5,4.8,9.1c13.7,16.5,28.2,32.3,42.7,48.1c3,3.2,6.4,6.2,7.9,10.7
			c1.6,2.7,3.9,4.4,6.9,5.2c0,0,0.9,0,0.9,0s0.9,0.2,0.9,0.2c3.2-1.3,6.3-2.7,9.5-4C791.6,442.4,801.8,445.2,808.8,440.4z"/>
		<path id="XMLID_189_" class="st37" d="M767.4,448.4c1.2-5.1-3.1-7.3-5.5-10.3c-16-19.8-34.9-36.9-49.9-57.5
			c-9.7-10.6-19.3-21.2-29-31.8c-0.8-1-1.7-1.1-2.6-0.1c13.1,16,26.3,32.1,39.4,48.1C735.6,413.9,751.5,431.1,767.4,448.4z"/>
		<path id="XMLID_188_" class="st38" d="M680.4,348.6c0.9,0.1,1.7,0.1,2.6,0.2c-12.3-14.6-24-29.9-39.5-41.6
			c7,8.9,14.1,17.7,21.2,26.6C670.2,338.4,673.8,345,680.4,348.6z"/>
		<path id="XMLID_187_" class="st39" d="M926.8,433.8c19.9,3.6,38.6,10.8,57.4,17.8c-16.7-19.4-35.8-36.3-54.5-53.7
			c-7.6-1.9-12.5-7.7-17.2-13.1c-9.7-11.1-21.4-19.1-34.9-24.8c-8.8-3.7-15.3-10.8-22.1-16.6c-16.5-13.8-35.5-24.3-51.4-38.9
			c-3.3-3.1-9.3-2.3-13.2-5.4c-13.1-3.7-26.6-5.3-40.2-5.8c-6.7,6.6-3,11.6,2.8,15.5c21.5,14.2,43.6,27.4,63.4,44.1
			c5,4.2,11.8,4.1,17.7,7c20,9.7,36.9,23.5,53.8,37.4c8.1,6.6,16.3,13.2,24.7,19.4C919.1,421.2,924,426.6,926.8,433.8z"/>
		<path id="XMLID_186_" class="st40" d="M926.8,433.8c6.1-4.8,6.4-9.1-0.3-14.2c-20.2-15.4-40.6-30.8-60.1-47
			c-11.2-9.3-25.9-10.8-37.5-19.6c-21.1-16-43.5-30.2-64.9-45.7c-5.1-3.7-14.9-3.8-13.4-14.1c-11.2-0.8-22.3-1.6-33.5-2.5
			c-0.1,0.6-0.2,1.2-0.4,1.9c22.4,20,48.6,34.8,72.4,52.8c11.9,8.9,23.6,15.1,38.4,15.6c4.7,0.2,9.4,2.3,13.4,5.5
			c26.6,21.8,55.3,41.1,78.9,66.3C922.2,433.3,924.5,433.6,926.8,433.8z"/>
		<path id="XMLID_185_" class="st41" d="M790.8,299.1c1.4,2.5-1.4,8.9,5.8,6c1.1-0.5,3.6-0.2,4.1,0.5c12,19.9,35.2,26.5,50.6,42.7
			c11.5,12.1,27.6,19.6,42.9,27.1c11.6,5.7,18.8,15.6,26.8,24.7c2.2,2.5,4.4,4.9,6.9,4.5c3.4-0.6,1-4.5,1.7-6.8
			c-30.1-29.3-55.7-63.8-94.6-83C820.9,308,806.2,302.5,790.8,299.1z"/>
		<path id="XMLID_184_" class="st42" d="M873.5,563c-0.2,1.5-0.4,3-0.6,4.4c0,0,0.2,0,0.2,0c1.2,12.8-1.6,25.4-2.1,38.1
			c2.7,12.1,12.1,15.8,22.6,18.8c32.3,9.1,61.8,24.7,90.6,41.5c8.5,5,14.8,13.8,26.3,12c1.9-0.3,3.7-0.4,5.1-1.8
			c0-1.5,0-3.1,0.1-4.6c2-5.9,4-11.8,5.9-17.7c-3.4-9.6,4.8-17.3,4.3-26.5c-16.5-14-35.2-25.2-55.3-31.7
			c-21.4-6.8-41.6-17-63.7-21.4c-9.2-1.8-18.4-3.5-25.3-10.9C879.4,560.9,876.3,560.7,873.5,563z"/>
		<path id="XMLID_183_" class="st43" d="M873.5,563c6.9,12.7,19.6,14.1,31.9,16.7c14.7,3,27.9,11.2,42,14.7
			c17,4.3,32.2,11.3,47.5,18.9c6.1,3,12.1,5.9,16.9,10.7c4.2,4.1,8.7,5.5,14.2,3.2c2.3-14.1,7.3-28.1,3.7-42.7
			c-1.1,3.3-0.8,8.8-6.7,4c-9.5-7.7-20.9-12.3-32-15.6c-26.9-8.1-51.2-23-78.9-28.6c-7.2-1.5-13.3-6.7-21-6.8
			c-4.2-4.9-8.5-9.8-12.7-14.7c-8.6-1.6-6.8,5-6.7,9.2C871.7,542.3,874.6,552.6,873.5,563z"/>
		<path id="XMLID_182_" class="st44" d="M1015.7,676c-3.6-4.1-5.9-11.1-13.5-4.8c-1.7,1.4-4.1-0.6-5.9-2.1
			c-29.9-25.2-65.8-38.3-102.1-50.3c-8-2.6-14.6-7.3-22-10.7c-4.3,10-1.2,21-4.7,31.1c-0.3,3-0.5,6-0.8,9
			c7.1,9.8,18.5,12.5,28.9,16.1c22,7.8,42.7,17.3,60.2,33.2c5.3,4.8,12.8,6,19.1,9.2c3,1.5,6.6,2,8.9,4.6c6.1,7,13.6,6.2,21.5,4.7
			c10.2-1.9,19.7-7,30.4-6.3c2.8-0.9,5.6-1.8,8.5-2.8c-1.2-2.1-2.3-4.2-3.5-6.4C1032.3,692.4,1024,684.2,1015.7,676z"/>
		<path id="XMLID_181_" class="st45" d="M1035.6,709.7c-8.1-5.2-15,1.3-22.4,2.6c-9.4,1.6-18.4,5.2-24.5-6c-0.9-1.6-3.7-2.4-5.8-3.1
			c-12.5-4.1-24-9.1-33.6-19.1c-7.1-7.3-17.8-11.2-27-15.4c-18-8.1-36.4-15.6-55.6-20.6c-1.7,8.9-3.3,17.7-5,26.6
			c0.1,1.6,0.1,3.2,0.2,4.7c-0.8,7.5,1.9,12,9.6,14.4c11.6,3.7,21.9,10.8,34.2,13.4c8.9,1.9,14.3,10.2,19,16.4
			c5.1,6.7,10.7,6.3,16.7,7.7C972.8,724.8,1004.7,719.4,1035.6,709.7z"/>
		<path id="XMLID_180_" class="st46" d="M941.2,731.3c-2.9-1.5-5.9-2.9-9-4.5c1.9-0.6,3.8-1.2,8.2-2.7
			c-11.9-4.6-18.2-13.2-26.2-19.3c-8.8-6.8-22-6.3-31.9-12.5c-6.9-4.2-13.7-8.6-20.5-12.9c-3.4,13.2-6.8,26.4-10.2,39.6
			c-1.5,4.5-2.1,9.4-5.5,13.2c-0.7,6.7,2,9.6,8.9,8.5c2.8-0.5,5.8-0.1,8.8-0.1c6.8,2.2,13.6,3.9,20.2-0.6
			c14.7,0.5,28.5-6.1,43.3-5.5C931.9,733.6,936.6,732.5,941.2,731.3z"/>
		<path id="XMLID_179_" class="st43" d="M867.4,639.2c4.7-9.9,2.9-20.8,4.7-31.1c-0.2-13.6,4.4-27,1-40.7
			C871.2,591.3,869.3,615.2,867.4,639.2z"/>
		<path id="XMLID_178_" class="st47" d="M884,740.1c-6.7,0.2-13.5,0.4-20.2,0.6c9.2,7.4,19.3,4.9,29.3,2.4
			C890.1,742.1,887,741.1,884,740.1z"/>
	</g>
	<g id="XMLID_130_">
		<path id="XMLID_176_" class="st43" d="M215.3,716.4c0.1-1.5-0.3-3.3,0.4-4.4c10.2-15.7,0.3-25.6-10.3-34.8
			c-7.7-6.7-7.4-11.8,1.4-16.9c5.8-3.3,11.4-7,17.1-10.5c1.6,0.6,3,1.4,3.7,3c-0.7,13.4,4.7,24.4,10.5,36.3
			c11.3,23.4,29.6,41.9,41.5,64.7c1.9,3.6,4.5,7.4,4.3,11.4c-0.7,21.1,12.9,33.5,26.2,46.9c12,12,25.8,22.8,33.8,38.5
			c0.1,1.1,0.1,2.3,0,3.4c-1.9,12.6-5.1,24.6-13.5,34.6c-3.5,0.7-5.9-1-7.3-3.9c-9.8-19.7-25.5-35-39.7-51.1
			c-14-15.8-22.9-34.6-34.4-51.9c-6.2-9.3-12.2-18.4-20.5-26.2c-8.2-7.7-15.6-16.9-16.2-29.3C213.7,722.9,213.2,719.2,215.3,716.4z"
			/>
		<path id="XMLID_175_" class="st48" d="M340.9,852.4c0-0.8,0.1-1.6,0.1-2.4c-0.1-12.2-5.2-21.6-14.2-30.1
			c-14.7-13.7-28.5-28.3-39.9-45.1c-8-11.7-5.1-28.1,6.8-36c1.1-0.1,2.2,0,3.3,0.2c5.9,2.7,10,7.4,14.2,12.2
			c19.2,21.8,38,44,59,64.2c5.3,5.1,13.1,3.2,18.2,8c1.8,4.5,3.3,9,2.3,14c-0.1,0.4-5.1,4.2,1,3.1c2.4,1.3,3.4,3.5,4.2,5.9
			c-0.4,8.3,1.5,17.2-6.6,23.3c-8.2-4.4-12.1-14.2-21.3-17.3c-9.5-8.9-16.4,0.2-24.1,3.5C342,855.4,341.6,853.7,340.9,852.4z"/>
		<path id="XMLID_174_" class="st49" d="M241.9,899c-14.3-15.5-26.3-32.4-33.6-52.3c3.1-5.9-4.8-10.7-1.7-16.6
			c6.7-5.5,10.9-1,15,3.7c12.1,13.8,22.9,28.5,34,43.1c18.2,23.8,38.6,45.6,60.8,65.6c3.9,3.5,6.3,7.2,7,12.2
			c0.1,2.1-0.2,4.3-0.5,6.4c-0.7,3-2.4,5.5-4,8c-3.5,5.3-7.5,5.5-11.9,1.1c-18.3-18.5-34.6-38.7-50.8-59
			C252,906.1,246.5,903.2,241.9,899z"/>
		<path id="XMLID_173_" class="st50" d="M353.6,910c11.5,0.8,22.4-3,33.7-4.3c3.8,4.3,3.2,6.5-2.2,9.2c-3.7,1.9-9.3,0.2-11.1,5.6
			c1.2,12,10.7,19.3,16.6,28.3c15.1,22.8,34.1,42.3,53.7,61.3c8.8,8.5,15.9,18.8,27.3,24.5c2.9,1.5,3.5,4.7,1.3,7.7
			c-6,4.3-12.8,4.6-19.7,4.1c-17.8-5-26.5-20.9-39-32.3c-24.6-22.6-42.3-51-63-76.8c-5.8-7.2-0.9-15.9-2.5-23.8
			C349.5,911.4,351.1,910,353.6,910z"/>
		<path id="XMLID_172_" class="st51" d="M364.5,915.4c7.3-3.9,17.6-1,22.8-9.7c3.7-2.1,7.8-2.8,11.9-3.2c7.5,3,1.9,7,0.8,10.7
			c-1.9,10.3,5.9,16.5,10.8,23.3c23.9,32.9,52.9,61.1,83.1,88.1c3.3,3,7.7,5.1,5.5,10.8c-5.2,5.4-11.3,8.1-18.9,6.8
			c-16.8-10.8-29.9-25.5-43.5-39.7c-21.5-22.4-43.1-44.8-58.9-72c-2.5-4.2-6.2-7-10.2-9.5C365.8,919.6,362.9,919.1,364.5,915.4z"/>
		<path id="XMLID_171_" class="st52" d="M396.3,911.6c-6.4-5.4,4.7-5.1,2.9-9c3.4-2.5,5.4-0.1,7.5,2.2
			c37.1,39.7,74.2,79.4,111.2,119.1c0.7,0.8,0.9,2,1.4,3c-2.3,2.3-3.6,5.7-7.3,6.4c-1.1,0-2.2-0.1-3.2-0.5
			c-20.9-14.6-36.9-34.8-57.4-49.9c-5.8-4.2-9.1-11.6-14.1-17.2c-13.4-15-26.3-30.4-37.9-46.8C397.9,916.6,397.8,913.8,396.3,911.6z
			"/>
		<path id="XMLID_170_" class="st53" d="M241.9,899c9.9,0.4,18.2,2.5,20.4,14.4c0.6,3.1,4.3,6.1,7.3,8
			c16.1,10.2,23.1,28.6,36.9,41.1c7.2,6.5,9.2,6.2,12.7-1.5c2.3,0.7,4,2.4,4.4,4.6c2.1,11.7,5,23.2,7.4,34.9
			c0.7,3.5,0.5,6.9-4.6,6.8c-24.5-31-49-62-73.4-93C249.2,909.4,245.6,904.1,241.9,899z"/>
		<path id="XMLID_169_" class="st54" d="M343.3,855.3c1-2,1.9-4,3-5.9c2.8-4.5,3-14.1,8-12.9c6.3,1.5,12.4,7.7,13.6,15.9
			c-7.1,13.7-12.8,28-15.6,43.2c-0.6,1.5-0.7,3.2-2,4.5c-6.4,2.7-11.2,7.1-14.1,13.5c-1.9,4.3-4.1,8.3-9.8,4.7
			c-1.4-2.2-1.2-4.6-1-7.1C326.8,891.2,336,873.5,343.3,855.3z"/>
		<path id="XMLID_168_" class="st36" d="M511.9,1030.1c2.5-1.1,5-2.2,7.4-3.3c0.9,11.1-4.7,17.1-14.8,20.5
			c-19.1,6.4-38,13.3-58.5,13.5c-2.1-1.9-4.8-1-7.1-1.7c-4.2-1.1-10.4,0.9-11.7-5.5c-1.2-5.7,4.6-6.7,7.7-9.3
			c18,0.8,35.7-1,53.3-5.4C496.6,1036.7,503.3,1030.8,511.9,1030.1z"/>
		<path id="XMLID_167_" class="st55" d="M511.9,1030.1c-9.9,9.5-23.3,10.1-35.5,12.9c-13.3,3-27.1,3.7-40.6,5.4
			c-12.2,4.7-24,2.4-35.7-1.8c-7-3.5-14.4-6-21-10.3c-11.1-8.7-19.1-20-26.1-32.2c-4.1-4.5-5-10.2-6.3-15.8
			c-7.9-13.8-4.7-29.6-7.7-44.2c-0.6-4.6,1.5-9,1.3-13.6c0.1-11.7-0.1-23.5,9.7-32.3c0.7-0.9,1.5-1.7,2.2-2.6
			c2.1,4.6,1.9,9.5,1.4,14.3c-0.8,1.5-1.5,2.9-2.3,4.4c-1.7,16.6,2.9,32.7,3,49.2c0.7,3.7,1.9,7.2,2.6,10.9
			c7.1,32.9,26.6,53.8,59.7,61.3c11.4,4.4,23.7,4.4,35.4,7.1c7,0.3,13.8-1,20.6-2.6c2-2,4.4-2.4,7-1.4c6.5-0.4,12.6-2.6,18.5-5
			c2.7-4.8,6.7-5.9,11.6-3.6C510.5,1030.2,511.2,1030.2,511.9,1030.1z"/>
		<path id="XMLID_166_" class="st56" d="M391.2,845.4c-0.6-1.6-1.1-3.2-1.7-4.8c-0.4-9.1-2.7-18.2-0.9-27.5
			c2.8-9.9,4.3-19.6,12.3-27.9c7.4-7.7,5.5-19.7,6.5-30.1c1.9-8-1.5-18.3,9.5-22.5c-2.4,28.3-4.8,56.5-7.2,84.8
			c1.5,5.2-0.1,10.4-0.5,15.5C408.2,844.6,404.2,847.2,391.2,845.4z"/>
		<path id="XMLID_165_" class="st57" d="M445.4,597.5c-0.2,3-0.3,5.9-0.5,8.9c-4.5,14.7-9,29.3-13.5,44c-8.4,9.8-13,9.6-18.5-0.7
			c3.7-23.9,11.1-46.5,23.9-67.2c6.1-2.3,8,1.4,9.2,6.3C446.7,591.6,443.2,594.4,445.4,597.5z"/>
		<path id="XMLID_164_" class="st58" d="M400.3,1041.1c11.7,2.9,23.4,6.4,35.5,7.3c0.4,0.1,0.8,0.1,1.1,0.3c0.5,0.4,1.3,1.3,1.3,1.3
			c-1.7,1.8-5.4-0.7-6.6,3.5c4.6,2.7,11,2.3,14.5,7.2c-20,2.9-39.6,2.8-58.6-5.2C386.4,1046,394.5,1044.6,400.3,1041.1z"/>
		<path id="XMLID_163_" class="st59" d="M391.2,845.4c0.8-0.7,1.6-1.9,2.5-2.1c14.5-3,15.7-14.1,16-25.9c0.6,16,1.2,32,1.6,48
			c0.1,4.2-2.5,6.1-6.5,5.8c-5.2-0.4-10.4-1.1-15.6-1.7C389.9,861.6,390.6,853.5,391.2,845.4z"/>
		<path id="XMLID_162_" class="st60" d="M356.6,1002.6c6.8,11.2,15.6,20.5,25,29.5c-1.8,6.7-0.5,15.7-11.6,15.4
			c-9.1-4.2-16.8-10-22.1-18.7c-1.2-7.3-2.3-14.6,1.9-21.5C351.5,1004.6,353.1,1002.4,356.6,1002.6z"/>
		<path id="XMLID_161_" class="st46" d="M343.3,855.3c-5.6,18.6-12.8,36.8-15,56.3c0.5,20.6-4.1,41.6,4.9,61.6
			c1.5,3.4,0.8,7.3,0.6,11c-2,8.5,1.9,15.5,6.2,22.3c1,3.8,3.7,7.8-1.4,10.8c-6.8,0.2-9.3-5-12-9.8c2-1,2.5-2.7,1.7-4.6
			c-5.4-13.4-6.6-27.6-9-41.6c0.1-2.3,0.3-4.6,0.4-7c1.7-6.7-5.2-10.9-5-17.3c0.2-4,0.1-8,1.7-11.8c2.7-8,4-16.4,5.3-24.7
			c0.2-5.4,0.3-11,7.1-12.8c4.1-11.7,8.1-23.4,12.2-35.1C341.7,853.3,342.5,854.3,343.3,855.3z"/>
		<path id="XMLID_160_" class="st31" d="M338.6,1017.2c-1.1-2.9-2.2-5.8-3.3-8.7c0.1-3.4-1.1-6.4-2.3-9.5c-1.5-4.2-3.2-8.8,2.4-11.5
			c5.3-2.6,10.8-6.3,15.3,1.3c2,4.6,3.9,9.2,5.9,13.8c-2.3,8.9-4,18-8.7,26.2C344.8,1024.9,341.7,1021,338.6,1017.2z"/>
		<path id="XMLID_159_" class="st39" d="M416.9,732.6c-4,7.6-3,16.2-4.4,24.3c-2.1,4.2-5.6,7-9.3,9.5c-3.5,2.3-6.8,3.2-9.4-1.3
			c0.2-15.8,0.5-31.5,4.9-46.8c6.8-0.3,13.4-2.3,20.1-3.5C418.2,720.7,417.6,726.6,416.9,732.6z"/>
		<path id="XMLID_158_" class="st61" d="M370,1047.5c3.9-5.1-0.1-16.1,11.6-15.4c6.2,3,12.4,6,18.7,9.1c-2.6,6.3-5.7,12.1-12.8,14.4
			C380.9,1054.4,375.1,1051.7,370,1047.5z"/>
		<path id="XMLID_157_" class="st23" d="M427.4,668c-2.5,12.6-5,25.2-7.5,37.7c-3.6,2.9-3.3,9-9.1,10.3c-4.2,1-8,2.1-10.3-2.9
			c0-12.3,2.4-24.1,7-35.5c4.8-1.3,9.9-1.7,12.6-7.1C421.4,667.9,424,666.1,427.4,668z"/>
		<path id="XMLID_156_" class="st50" d="M427.4,668c-3.7,4.9-5.1,11.4-11.8,14.2c-7,2.9-3.9-2.6-4.8-4.8
			c-6.4-10.1-3.3-21.8,6.8-26.7c4.6,2.2,9.1-1.4,13.6-0.4C430,656.2,428.7,662.1,427.4,668z"/>
		<path id="XMLID_155_" class="st62" d="M403.4,715.5c3.5-6.6,10.5-7.3,16.5-9.7c-0.4,3-0.7,6-1.1,9c-2.1,3.5-4.2,7.1-6.5,10.5
			c-1.5,2.2-0.7,6.9-5.3,5.9c-4.8-1-4.9-5-4.5-8.9c0.2-1.5,0.2-3,0.3-4.5C402.2,716.7,402.4,716,403.4,715.5z"/>
		<path id="XMLID_154_" class="st24" d="M203.4,819.4c-4.9-17.3-4.1-34.7-1.5-52.2c1.3-0.5,2.5-0.4,3.6,0.5
			c5.6,9.4,2.7,20.2,5.2,30.1c-3.9,6.8,2.1,15.4-3.8,21.9C205.7,820.4,204.5,820.3,203.4,819.4z"/>
		<path id="XMLID_153_" class="st63" d="M204,767.4c-0.7-0.1-1.3-0.1-2-0.2c4.1-17,3.3-35.4,13.3-50.9c-0.4,3.7-0.7,7.4-1.1,11.2
			c1.9,12.2-0.4,23.9-4.6,35.3C208.7,765.6,206.9,767.1,204,767.4z"/>
		<path id="XMLID_152_" class="st64" d="M343.8,597.1c-4.8,1.6-9.7,3.3-14.5,4.9c-5.2-1.4-10.5-2.8-15.7-4.2
			C323.7,598.1,333.7,596.7,343.8,597.1z"/>
		<path id="XMLID_151_" class="st65" d="M203.4,819.4c0.8,0.1,1.6,0.1,2.4,0.2c5.1,3.1,5.4,6.9,1.6,11.3c-0.6,5.3,4.9,10.3,0.8,15.8
			C205.6,837.8,201.5,829.1,203.4,819.4z"/>
		<path id="XMLID_150_" class="st66" d="M206.5,763.1c1.1-12.2,2.5-24.3,7.7-35.6c7.3,14.1,20.9,23.1,29.3,36
			c21.9,34,43,68.7,71.2,98.1c7.2,7.5,12.7,15.4,14,25.9c-0.8,4.5-0.7,9.3-3.4,13.4c-2.1,1.1-1.5,3.2-1.9,4.9
			c-1.8,7.4-6.2,6.2-9.3,1.8c-15.1-20.9-33.9-38.6-50.9-57.9c-2-2.3-3.6-4.8-4.7-7.5c-3.7-9.2-9.6-16.8-16.2-24.1
			c-6.8-7.5-13.3-15.2-17.9-24.3c-1-2-1.9-4.4-3.7-5.5C211.5,782.3,208.3,773.1,206.5,763.1z"/>
		<path id="XMLID_149_" class="st67" d="M225.8,652c3.1-1.4,6.1-2.7,9.2-4.1c7.1-1.1,9.8,4.1,12.7,8.9
			c12.6,21.1,26.2,41.6,39.2,62.5c3.7,5.8,10.3,10,9.1,18.3c-0.2,1.5-0.7,2.9-1.6,4.1c-2.6,6.2-5.2,12.4-7.9,18.5
			c-1.4,3.1-1.1,5.5,1.2,8.1c17.3,19.1,32.4,40.2,52.8,56.3c6.7,5.3,6.7,14.7,0.5,25.3c-20.7-19.9-42.3-38.8-59.2-62.4
			c-1.8-2.5-4.5-5.1-3.6-7.9c6.9-21.7-10.7-33.8-20.1-48.2c-6.2-9.6-13.6-18.4-18.4-29.1c-3.6-8.2-7.7-16.6-15.2-21.9
			c-5.8-4.1,1.3-10.4-4.7-15.4C211.6,658,223.3,656.3,225.8,652z"/>
		<path id="XMLID_148_" class="st68" d="M256.8,636.8c4.7-2.5,9.3-5.1,14-7.6c2.1,1.3,4.2,0.9,6.4,0.1c12.4-4.5,15.3-4.5,21.4,6.7
			c7.3,13.4,16.4,25.6,23.9,38.8c3.5,6.1,5,13.1,6.8,20c-4.9,10.4-2.7,18.2,5.6,27c11,11.7,21,24.3,32.6,35.6
			c2.7,2.6,4.9,6.4,8.3,7.4c16.3,4.8,17.1,17.4,16.5,31c-0.5,6.8-1.1,13.6-2.9,20.2c-0.6,3.1,0,6.6-3.1,8.8c-7.8,2.8-14,1-19.9-5.1
			c-24.4-24.9-48.3-50.1-69.7-77.7c-3.8-8.7,0.6-16,4.6-23c3.7-6.4,2.9-11.5-0.7-17.7c-9.8-17.3-22.2-32.8-32-50
			c-1.9-3.3-4.5-5.9-8-7.6C257.9,642.3,255.1,640.8,256.8,636.8z"/>
		<path id="XMLID_147_" class="st48" d="M256.8,636.8c8.6,0.2,13.3,4.7,17.6,12.3c10.1,17.8,21.4,35,33,51.9
			c4.5,6.5,5.8,11.3,0.7,17.9c-5.2,6.8-8.8,14.8-11.6,23c-0.7-0.1-1.5-0.1-2.2-0.2c-9.7-18.4-22.2-34.9-33.1-52.5
			c-8.6-13.8-15.9-28.5-26.3-41.3C241.7,643.1,248,637.6,256.8,636.8z"/>
		<path id="XMLID_146_" class="st13" d="M386.3,824.7c0.3-3,0.6-6.1,0.9-9.1c2.7-7.8,2.4-15.9,2.6-24c0.2-5.7-1.5-12,3.9-16.4
			c6.3,2.1,7,7.9,4.6,11.8c-5.1,8.5-3.3,18.2-6.4,26.8c-2.4,8.8,0.6,18.1-2.4,26.9c-0.5,3.6-1.1,7.2-1.6,10.7c-0.3,0-0.6,0-0.9-0.1
			C386.8,842.4,386.5,833.6,386.3,824.7z"/>
		<path id="XMLID_145_" class="st69" d="M207.4,830.9c-0.5-3.8-1.1-7.5-1.6-11.3c-0.7-6.9-1.4-13.8-2-20.7c4.2-3.5,7.3-1.1,10.8,1.5
			c7.7,5.7,12,14.1,18,21.3c18.3,22.1,35.1,45.5,54.3,66.7c7.9,8.7,15.6,18.2,25.5,25c4.4,3,6.5,6.9,8.3,11.5
			c-0.4,9.7-0.7,19.4-1.1,29.1c-1.2-5.4-6.7-6.2-9.8-9.4c-17.8-17.8-35.6-35.6-51.6-55.2c-13.8-16.8-25.9-34.8-39.9-51.4
			C215.3,834.6,212.2,831.6,207.4,830.9z"/>
		<path id="XMLID_144_" class="st3" d="M452.1,1042.8c-13.1,1.2-26.1,1.9-38.8-2.8c3.7-6.2,8.5-2.2,11.4-1.9
			c-10.6-3.4-14.4-6.1-26.2-19.8c-11.4-13.3-22.3-26.9-33.7-40.2c-4-4.7-7.8-10-14.4-11.8c-4.4-17.4-1.7-34.7,0.7-52
			c-1.9,19.1,12.9,29.3,22.2,42.7c17.3,25.1,38.1,47.1,59.5,68.6C439.1,1031.8,444.7,1038.3,452.1,1042.8z"/>
		<path id="XMLID_143_" class="st70" d="M479.7,1038.7c-2.3,0.5-4.6,1-7,1.4c-20.9-9.3-33.8-27.9-49.3-43.3
			c-22.4-22-39.7-48.3-58.3-73.5c-1.7-2.3-6-5-0.5-8c14,0.5,19,11.8,24.6,21.5c15.1,25.9,37.4,45.4,57.3,67.1
			C457.3,1015.8,468.6,1027.2,479.7,1038.7z"/>
		<path id="XMLID_142_" class="st71" d="M509.8,1030.1c-3.9,1.2-7.7,2.4-11.6,3.6c-14.7-7.2-25.1-20-36.2-31
			c-20.7-20.6-42.2-40.9-58.2-65.6c-4.5-7-14.7-14.3-7.5-25.6c6.8,3.4,11.4,8.7,16.3,14.4c12.7,14.7,24.6,30.1,37.9,44.4
			c9.2,9.9,22.2,16.6,27.9,29.8c0.4,0.8,1.7,1.4,2.8,1.8C495.5,1006.5,499.6,1021.4,509.8,1030.1z"/>
		<path id="XMLID_141_" class="st72" d="M328.2,987.6c-4.9-25.3-7.3-50.7,0-76c0,2.3,0,4.6,0,6.9c6.6,5.6-0.5,11.6,0.5,16.8
			c0.7-3.9,0.4-9.3,6.2-10.8c5.7-1.4,8,2.6,9.7,7.1c-0.2,4.4-0.4,8.7-0.6,13.1c1,3,0.2,5.7-1,8.6c-3.8,8.8-8.4,17.3-8.9,27.3
			C333.9,983.9,332.4,987.1,328.2,987.6z"/>
		<path id="XMLID_140_" class="st73" d="M344.6,931.6c-19.1-9.2-10.7,12-19.1,16.4c0.9-10.1,1.8-19.8,2.7-29.5
			c4.4-9.9,6.2-22.5,21.8-20.2C348.2,909.3,346.4,920.4,344.6,931.6z"/>
		<path id="XMLID_139_" class="st74" d="M350.6,966.4c2.3-5.3,3.3-8.2,9.5-1.8c18.8,19.3,33.3,42.2,52.9,60.7
			c6.9,6.6,14.6,11.2,22.9,16.8c-7.5-0.7-15.1-1.4-22.6-2.1C378.8,1034.2,352.9,1003.7,350.6,966.4z"/>
		<path id="XMLID_138_" class="st39" d="M328.2,987.6c-2.4-17.1,7.1-29.9,15.8-43c1.7,14.8,2.6,29.7,6.7,44.2
			c-8,2.2-19.7,1-14.2,15.6c0.4,1.1-0.8,2.7-1.3,4.1C331.8,1001.9,328.6,995.2,328.2,987.6z"/>
		<path id="XMLID_137_" class="st32" d="M391.9,813.8c-0.2-12.9,3.1-25.8,1.5-38.8c-2.9-4.2-1.1-6.7,3.1-8.2
			c2.9-7.3,9.8-8.1,16.1-9.9c-0.6,7.4-1.2,14.9-1.9,22.3c-0.3,3.8-0.5,8.7-3.8,10.2C396.3,794.4,395.2,804.6,391.9,813.8z"/>
		<path id="XMLID_136_" class="st13" d="M343.5,601.9c27.8-8.8,56.3-14.8,85.1-19.8c1.5-1.1,3.1-1.1,4.8-0.3
			c3.6,10.1-5.1,14-10.5,18.1c-13.8,10.5-26.2,22.2-37.6,35.1c-9.3,10.4-9.1,17.3,0.7,27.1c3.7,3.7,7,8,11.3,10.8
			c7.7,5.1,9.9,12.1,7.7,20.4c-3.6,13.6-4.4,27.8-8.7,41.2c-4.8,2.3-9.1,1.7-13.3-1.9c-14.3-12.4-28.9-24.4-40.2-39.8
			c-3.7-5.1-7.6-10.1-7.1-17c3.1-7.5,6.9-14.5,12.6-20.6c6.8-7.2,5.3-20.8-4.2-31.2C336.9,615.9,335.9,609.4,343.5,601.9z"/>
		<path id="XMLID_135_" class="st75" d="M343.5,601.9c-0.8,7.7,1.2,13.6,6.6,20c12.3,14.7,11,26.5-1.7,41.4c-3.4,4-6.3,8.3-9.5,12.5
			c-0.9,0.7-1.9,1-3.1,1c-11.5-8.9-21-19.6-28.3-32c-4-6.7-7.1-13.8-13-19.2c-1.7-1.5-1.9-4-0.4-6.1
			C309.8,611.7,326.4,606,343.5,601.9z"/>
		<path id="XMLID_134_" class="st76" d="M294.1,619.4c7.7,5,12.9,11.8,17.1,20.1c4.2,8.2,9.1,16.3,16.9,22c4.6,3.4,7.6,8.1,8.6,14
			c1.3,14.2-1.9,18.9-13.1,19.1c-0.1-7.8-4.3-14.1-7.9-20.5c-6.5-11.6-15.6-21.5-20.7-34.1c-2.9-7.2-8.8-12.1-17.9-7.9
			c-2.9,1.3-5-0.1-6.2-2.9C278.4,625.5,285.6,621,294.1,619.4z"/>
		<path id="XMLID_133_" class="st77" d="M433.2,582.7c1.8-0.7,3.4-0.5,4.9,0.9c-6.7,22.4-16.3,44-20.5,67.2
			c-3.5,8.6-5.9,17.4-6.8,26.7c-3.8,12.5-5.9,25.2-7.4,38.1c-0.2,0.7-0.4,1.5-0.6,2.2c-5.4,16-4.8,32.7-6.3,49.1
			c-1,2.7-2,5.5-3.1,8.2c-3,13.4-0.5,27.6-6.2,40.6c0.6-7.4,1.2-14.9,1.9-22.3c1-15.8-4.7-31.5-1-47.3c1.2-5,1-10.5,6.6-13.2
			c4.9-13.8,5.5-28.4,8.1-42.6c0.8-4.5-2.1-7.5-5.5-10.3c-6.5-5.6-12.8-11.5-18.9-17.5c-9.6-9.5-9.3-18.5-0.1-28.9
			c14.7-16.5,31.5-30.7,48.7-44.5C429.4,587.2,431.2,584.8,433.2,582.7z"/>
		<path id="XMLID_132_" class="st78" d="M320.7,925c-18.3-8.9-29.9-25-43.4-39.4c-17.7-18.8-31.5-40.6-48.5-59.9
			c-8.1-9.2-14-20.3-25.1-26.7c0.1-10.5,0.2-21,0.2-31.6c0.8-1.4,1.7-2.8,2.5-4.3c1.8,0.4,4.7,0.3,5.1,1.3
			c13.2,29.1,37.9,50.1,54,77.5c10.9,18.6,28.3,33.6,43.7,49.3c4.5,4.6,8.8,8.6,9.8,15.1c4.3-0.9,2.6-4.7,4.5-6.3
			c0.2-0.2,0.7-0.1,1,0.1c0.3,0.2,0.5,0.5,0.7,0.8C323.9,908.9,324.2,917.3,320.7,925z"/>
		<path id="XMLID_131_" class="st79" d="M394.7,732.8c-1.9,20.2-3.8,40.4-5.6,60.5c0-11.7-5.9-17.8-16.2-24.2
			c-12.9-8.1-23.4-20.5-33.1-32.8c-3.2-4.1-6.1-8.5-9.8-12.2c-13.3-13.1-13.4-13-6.3-29.4c5.8-5.4,10.4-11.6,13.1-19.1
			c0.7,0.1,1.5,0.1,2.2,0.2C351.9,700.2,372.3,717.4,394.7,732.8z"/>
	</g>
	<g id="XMLID_88_">
		<path id="XMLID_129_" class="st80" d="M348.7,477.9c5.2-6.5,13.6-9.6,18-17c1.5-5-2.3-8.1-4.3-11.9c-0.9-3.2-0.8-6.4-0.7-9.6
			c0.2-1.1,0.4-2.5,1.3-3c21-13.7,37.9-33.1,59.8-45.2c18.3-10.1,33.9-24.3,52.4-33.5c17-8.5,31.2-21.7,49.4-28.2
			c8-2.8,14.3-9.6,22.4-12.7c9.4-7.4,18.9-14.7,28.3-22.2c5.9-4.7,9.9-4.6,11.7,3.6c1.5,6.9,3.3,13.8,4.9,20.8
			c-1.6,9.3,3.5,17.6,4.2,26.5c-5.6,11.6-16.1,18-27.2,22c-15,5.5-28,14.3-41.5,22.3c-15,8.9-29.3,19.2-48.3,17.2
			c-5.3-0.6-10.1,2.8-14.4,5.9c-13.9,10.1-27.3,21.2-41.5,30.6c-15.1,9.9-26.7,24.2-43.1,32.1c-4.3,2.1-6.8,5.7-8.2,10.2
			c-1.1,3.5-1.5,7.5-5.6,9.2c-8.9,1.5-17.5-0.1-25.8-3.2C335.2,482.3,346.3,482.7,348.7,477.9z"/>
		<path id="XMLID_128_" class="st81" d="M547,316.7c-1.3,12.2-12.7,14.3-20.6,18c-7.5,3.5-14.1,7.7-21,12.1
			c-16.6,10.7-35.4,18.4-50.7,30.7c-22,17.6-49.6,27.3-68.5,49.1c-5.8,6.7-13.8,10.2-21.5,13.9c-10.1,2.3-16.4-1.5-24.7-14.9
			c-0.2-3.8,2-6,4.6-8.4c12.8-12,26.5-23.2,40.5-33.3c13.1-9.5,27-18.5,40.4-27.7c26.1-17.8,54.9-31.3,79.7-51.2
			c4.6-3.7,10.1-4.5,15.9-3.9c3.4,0.7,5.9,3.2,9.2,4.1C536.8,307.7,541.7,312.5,547,316.7z"/>
		<path id="XMLID_127_" class="st25" d="M454.9,273.7c4.7,0,9.4-0.7,13.7,2c0.2,1.6,0.5,3.2,0.1,4.8c-1.1,5.3-4.9,8.1-9.3,10.6
			c-27.4,15.3-53.1,33.4-79.4,50.5c-23.4,15.3-44.8,33.6-67.1,50.5c-4.3,3.3-4.9,10.6-12,10.8c-8.7-1.8-17.3-3.6-23.7-10.5
			c-1.5-5.4,2.4-8.3,5.4-11.5c16.6-17.5,36.2-31.4,54.9-46.4c30.3-24.3,66.2-40.1,97.9-62.3c0.9-0.6,2.2-0.6,3.3-0.6
			C444.2,271.8,449.6,272.1,454.9,273.7z"/>
		<path id="XMLID_126_" class="st82" d="M436.8,273.7c-6.8,9.9-17.2,15.3-27.1,21.3c-18.7,11.3-39.2,20.4-56,34.1
			c-24.2,19.7-50.4,37.1-72.1,59.9c-0.8,0.8-1.8,1.3-2.7,1.9c-11.5,5.1-22.4,2-33.2-2.4c34-24.9,68-49.9,102.1-74.7
			c15.4-11.2,30.9-22.3,46.4-33.4c5.5-3.9,11.1-7.7,18-8.6C420.3,273.2,428.9,268.5,436.8,273.7z"/>
		<path id="XMLID_125_" class="st83" d="M344.2,449.2c-23.8,18.7-47.6,37.4-71.5,56c-3.4,2.7-6.3,6.6-11.3,6.7
			c-2.5-3.6-7-6-6.5-11.4c14.8-25.7,39.2-41.3,61.9-58.6c4-3,7.3-7.2,12.6-8.5C336.6,436.5,345.9,437.6,344.2,449.2z"/>
		<path id="XMLID_124_" class="st9" d="M594.1,345.8c0.4-9.1-7-17.5-2.2-27c10.8,42.9,16.5,86.6,20.6,130.6
			c3.1,32.9,2.3,65.8,1.8,98.7c-1.1,0.9-2.4,1-3.7,0.5c-7.8-8.3-2.3-19-5-28.2c-0.2-16.7,0.3-33.4-1.6-50.1
			c1.1-16.7-2-33.2-3.2-49.8c-3.7-11.5,1.7-24.5-6.3-35.2c-0.2-8.3-1.2-16.5-2.9-24.5C590.5,355.4,590.5,350.3,594.1,345.8z"/>
		<path id="XMLID_123_" class="st84" d="M367.1,446.9c5.6,4.8,11.2,9.6-0.3,14c-5.9-4.6-11.8-9.3-17.7-13.9
			c-10-7.2-21.5-11.7-31.7-18.7c-1.7-3.1-2.8-6.5-6.1-8.8c-6.7-4.6-5.6-8.7,1.8-11.4c9.9,2.2,17.9,8,25.7,14
			c5.2,8.8,14.8,12.5,22.1,18.9C363,442.9,365.6,444.3,367.1,446.9z"/>
		<path id="XMLID_122_" class="st30" d="M387.2,510.8c-13.6-1.1-27.3-2.2-40.9-3.4c-5.1-0.5-10.6-0.3-13.2-6.2
			c-1.5-5.5-3.2-11.1,6-10.7c10.5,2.3,21,3.3,31.7,2.9c4-0.1,8.2-0.9,11.7,1.9C383.5,500.6,389.7,504.4,387.2,510.8z"/>
		<path id="XMLID_121_" class="st85" d="M387.2,510.8c-2.7-2.4-5.7-4.5-8-7.3c-4.7-5.7,1-4.2,3.6-4.8c1-1.2,2.2-2.6,3.6-2.4
			c16.9,2.1,34.5-0.4,50.3,7.9c3.7,5,0.6,8.7-2.3,12.4C418.7,514.7,403,512.8,387.2,510.8z"/>
		<path id="XMLID_120_" class="st2" d="M229.9,446.8c-3.4-14.4-5.6-28.7,1.4-42.7c4.9-2.3,7.6-10.1,14.9-6.2
			c5.4,2.8,7.9,7.4,6.9,13.6c-0.7,3.2-0.9,6.5-2.7,9.4c-2.7,4.3-6.8,7.7-8.5,12.8C238.8,438.9,240.4,448.5,229.9,446.8z"/>
		<path id="XMLID_119_" class="st86" d="M229.9,446.8c5.5-3.8,6.1-10.2,8.3-15.7c8.5,6,2.3,16.1,6.5,23.3c0.6,1.6,1.3,3.2,1.7,4.8
			c1,4.7,1.4,9.6,4.4,13.6c1.9,4.3,3.3,8.8,5.2,13.1c0.8,2,2.3,3.6,3.1,5.6c0.6,3.3,0.7,6.6-1.7,9.3c1.4,3.7,2.7,7.4,4.1,11.1
			c-5.8-2.2-9.9-6.4-12.4-12C241.3,482.6,233.2,465.6,229.9,446.8z"/>
		<path id="XMLID_118_" class="st21" d="M249.8,411c-2.3-12.8-11.4-7.1-18.5-6.9c1.9-5.8,5.7-9.7,11.5-11.6c7.3-4.4,15-3.2,22.7-2
			c0.3,6.2,5.4,2.9,8,3.4c5.3,1.1,7.5,4.8,9.1,8.8c2,4.9-1.7,7.3-5.8,9C267.7,411.7,258.7,413.6,249.8,411z"/>
		<path id="XMLID_117_" class="st87" d="M603.1,550.9c-23.3-0.2-45.1-6.7-66.5-15.1c-3-1.2-6.5-0.8-9.8-1.1c-5.5-6-3.8-9.1,4-9.8
			c23.1,0.8,44.3,9.4,66,15.8c4.5,1.3,9.6,2.4,11.7,7.6C608,551.8,606,552.3,603.1,550.9z"/>
		<path id="XMLID_116_" class="st88" d="M434.4,516.7c-1.9-2.5-6-2.8-6.4-6.7c2.4-3.1,6-1.7,9-2.4c3-3.9,7.4-3.5,11.4-2.9
			c11.4,1.8,23,3.3,33.7,8.2c2.9,3.9,4.1,8.1,1.8,12.8C467.3,523.8,450.8,520.3,434.4,516.7z"/>
		<path id="XMLID_115_" class="st89" d="M249.8,411c8.8-4.5,18.1-3.3,27.4-2.7c10.3-4,19.3-0.9,26.9,5.9c5,4.5,12.5,5.7,15.7,12.2
			c9.9,6.5,20.6,12.1,29.2,20.5c-1.6,0.7-3.2,1.5-4.8,2.2c-2.9-7.2-10.1-9.2-15.7-13c-2.5,0.6-5.1,1.4-7.7,0.2
			c-3.7-4.9-10.4-4-14.7-7.7c-4.2-3.3-9.9-2.8-14.3-5.6c-3.6-3-7.4-5.6-12.1-6.5c-8.1-0.6-16.2-0.4-24,2.3c-3.2,1.1-6.3,2.2-9.5,0
			c-0.3-0.4-0.7-0.9-1-1.3C246.7,415.4,248.3,413.2,249.8,411z"/>
		<path id="XMLID_114_" class="st90" d="M265.9,392.8c-7.7-3.6-15.4-1.3-23.2-0.3c-0.6-2.4,0.3-3.8,2.8-4
			c11.2-0.9,22.2,0.6,33.2,2.4c7.6,3,15.1,6,22.7,9c6.7-0.8,13,0.1,18.4,4.5c4.2,5.6,11.6,5.9,16.7,10.1c1.7,2.5,3.6,4.9,2.9,8.3
			c-0.4,1.2-1.1,2.2-2.2,2.9c-8.2-4.9-16.4-9.7-24.6-14.6c-10.1,1.1-18.7-3.2-26.8-8.1C279.6,399,272.9,395.8,265.9,392.8z"/>
		<path id="XMLID_113_" class="st91" d="M529.3,527.9c-3.8,1.2-1.1,4.7-2.5,6.8c-11.1,0.4-20.7-5.9-31.5-6.8
			c-3.2-6.5,0.8-8.5,6.1-9.7c7.4,0,14.4,1.9,21.4,3.9C525.8,522.9,529.5,523.3,529.3,527.9z"/>
		<path id="XMLID_112_" class="st92" d="M465.9,278.4c0.9-0.9,1.8-1.8,2.6-2.7c22.3,6.3,42.9,16.1,61.7,29.5
			c-3.4-0.8-6.7-1.6-10.1-2.4c-8-0.6-15.7-2-22.4-6.8c-5.2-2.7-11.3-3.4-16-7.4C475.8,286.2,467.6,287.5,465.9,278.4z"/>
		<path id="XMLID_111_" class="st51" d="M502.2,521.2c-3.6,0.9-6.1,2.9-7,6.7c-4,0.3-7.9,0.4-11.3-2.3c-0.7-3-12.1-4-1.8-9.2
			c2.2-2.9,5.4-2.9,8.6-2.7C495.1,515.5,501.6,513.9,502.2,521.2z"/>
		<path id="XMLID_110_" class="st93" d="M436.8,273.7c-8.2-0.8-16.6,1.6-24.6-2c14.5-3.8,28.8-4.8,42.8,1.9
			C448.9,273.7,442.8,273.7,436.8,273.7z"/>
		<path id="XMLID_109_" class="st94" d="M340.1,491.9c-5.5,0.6-6.8,4.4-7,9.2c-3.1-11.3-0.3-15.6,15.6-23.2c-2.9,4-5.8,8.1-8.8,12.1
			c0.8,0.4,1,0.8,0.8,1.3C340.6,491.7,340.3,491.9,340.1,491.9z"/>
		<path id="XMLID_108_" class="st94" d="M594.1,345.8c2.4,12.7,6,25.3,6.7,38.3c-1.6,3.5-1.8,6.9-1.3,10.8c0.8,7-2.7,10.1-9.4,6.6
			c-5.3-2.8-9.1-0.3-13.6,1.6c-16.9,7.2-32.8,16.3-49.4,24c-7.7,3.6-14.3,3.5-20.7-2.1c-8-7-15.6-6.8-24.2-0.5
			c-28.2,20.7-57.7,39.9-81.6,65.9c-3.5,3.8-6.8,8.3-13.2,6c-6.6-2.5-14.7,1.5-20.4-4.8c-2-10.9,0.5-19.2,12.3-22.7
			c6.2-1.9,10.8-6.4,15.7-10.6c23.3-19.8,47.9-37.8,73.5-54.5c3.1-2,6.6-4.9,10.3-3.8c14.4,4.4,26.2-2.6,36.6-9.9
			C540.1,372.7,569.4,363.3,594.1,345.8z"/>
		<path id="XMLID_107_" class="st95" d="M366.9,491.8c7.3,2.6,14.9,2.5,22.5,2.5c14.6-4.6,28.6-0.5,42.6,2.7
			c18,2.8,36.1,4.6,53.6,9.9c4.1,2.6,10.9,2.4,10,10c-1.8,1.2-3.7,1.2-5.5,0c-2.6-0.2-5.3-0.4-7.9-0.6c-14.7-4.6-29.8-7.4-45.1-8.8
			c-17.5-6.3-36.2-5.3-54.2-8.9c-13.8-5-28.8-2.6-42.8-6.8c0-0.7-0.1-1.3-0.1-2C348.9,490.6,357.9,491.2,366.9,491.8z"/>
		<path id="XMLID_106_" class="st44" d="M337.4,425.7c0.1-1.1,0.1-2.1,0.2-3.2c2.4-1.4,3.6,0.1,4.5,2c7.1,5.9,13.9,12.2,22.5,16
			c1,2.1,3.2,3.7,2.4,6.5C357.2,439.8,347.3,432.7,337.4,425.7z"/>
		<path id="XMLID_105_" class="st96" d="M342.2,424.5c-1.5-0.7-3-1.4-4.5-2c-1.5-1.4-3-2.9-4.5-4.3c-7.9-7.9-8.1-10.8,2.6-17.8
			c19.8-12.9,36.8-29.4,56.1-42.8c34.7-24,70.2-46.6,107.9-65.6c7.3,2.7,14.5,5.7,20.4,10.9c-20.3,13.2-39.7,28-61,39.1
			c-24.1,12.6-44.3,30.8-67.7,44.2c-14.6,8.4-26.9,21-39.3,32.6C349,421.8,345.8,423.1,342.2,424.5z"/>
		<path id="XMLID_104_" class="st2" d="M465.9,278.4c6,2.2,12,4.4,18,6.7c4,4.6,1.7,7.8-1.9,11.4c-7.8,7.8-17.6,12.8-26.8,18.2
			c-36.4,21.5-70.2,46.8-105.1,70.4c-7.1,4.8-13.9,10.1-18.5,17.7c-3.2,5.4-7.8,7.8-14.1,5.8c-5.3-2.9-10.7-5.8-16-8.8
			c1.4-7.6,6.4-11.6,12.7-15.9c16.7-11.4,32.5-24.1,48.6-36.3c29.5-22.4,61.4-41.4,92.9-60.8C459.5,284.5,463.5,282.4,465.9,278.4z"
			/>
		<path id="XMLID_103_" class="st63" d="M322.6,433.2c2,1,3.9,1.9,5.9,2.9c-3.2,5.6-8,9.3-13.4,12.9c-19.4,13.2-37.7,27.9-51.8,47.1
			c-1.6,2.2-3.3,4-6,4.7c-1-2.9-1.9-5.8-2.9-8.7c-0.2-10.2,4.8-15.8,13.2-22c13.5-10.1,27-20.6,39.4-32
			C312.5,433.1,316.4,431.9,322.6,433.2z"/>
		<path id="XMLID_102_" class="st97" d="M432.2,501.1c-14.5-0.9-28.7-3.7-42.8-6.8c13.6-14.3,26.9-28.9,43.3-40.2
			c18.4-12.6,34.6-28.1,53.9-39.6c6.7-4,12.4-3,17.3,2c8.1,8.4,16,9.3,26.5,3.3c16.9-9.6,34.6-17.7,52-26.5c5.8-3,11.6-6,12.8,7
			c2-7.5,1.9-12.6,5.8-16.2c1.1,12,4.9,23.7,4.6,35.9c1.7,14.7-6.1,21.2-19.5,25.3c-9.4,2.9-18.7,7.8-25.5,15.7
			c-3.3,3.8-7.3,3-11.4,2.5c-7.2-4.6-14.4-9.1-20.3-15.5c-7.1-7.7-15.1-8.2-24.1-2.7c-17.6,10.7-33.1,24.2-49.1,37
			C447.7,488.4,440.8,495.8,432.2,501.1z"/>
		<path id="XMLID_101_" class="st98" d="M490.1,517c1.7-0.1,3.4-0.1,5.1-0.2c3.6-6.5,9.3-4.9,14.8-3.8c5.6,1.1,10.9,2.3,15.3-3.1
			c1.4-1.7,3.8-2.2,6.2-2.1c8.8,0.4,15.7-3.9,22.4-8.8c6.3-4.6,12.7-9.2,20.8-10.3c3.1,0.2,5.2,1.7,6.6,4.4
			c5.6,6.9,12.1,13.1,16.6,20.8c3.4,5.7,8,8,14.3,7.6c0.1,8.9,0.3,17.7,0.4,26.6c-1.9,0.2-3.8,0.4-5.7,0.6
			c-25.8-6.9-51.7-13.9-77.5-20.8c-8.5-4.3-18.2-3.8-27-6.7C498.2,519.8,494.1,518.4,490.1,517z"/>
		<path id="XMLID_100_" class="st29" d="M578.5,496.6c-1.5-1.5-3-3-4.5-4.6c-13.6-5.1-20.5-16.3-26.2-28.7c0.2-1.1,0.6-2,1.4-2.8
			c10-3.3,15.7-13.2,25.7-16.6c6.6-2.3,12.6-6.9,19.3-8.3c7.9-1.7,9.7-5.4,8.1-12.5c-0.6-2.4-2-6,3.1-3.1
			c0.2,16.6,6.1,32.8,4.5,49.6c-4.4,7.6-4.9,17.2-12.4,23.2C591.7,497.4,586,501.1,578.5,496.6z"/>
		<path id="XMLID_99_" class="st45" d="M578.5,496.6c10-2.4,17.5-8.1,22.6-17c2.3-3.9,4.8-7.6,8.8-10c-1.8,17.4,3,34.6,2.2,51.9
			c-3,4.2-1,9.6-4,16C597.8,523.3,588.2,509.9,578.5,496.6z"/>
		<path id="XMLID_98_" class="st99" d="M265.9,392.8c17.2,2.1,32.6,8.8,46.9,18.2c-4.7,4.2-0.3,5.7,2.4,6.6c5,1.5,6.1,4.3,4.5,8.8
			c-14.1-6.3-27.3-14.7-42.6-18.1c4.3-6.4-1.4-8.6-5.2-10.5c-3.8-1.9-8.4-2.2-12.9-3.3C261,392,263.8,393.6,265.9,392.8z"/>
		<path id="XMLID_97_" class="st45" d="M241.1,458.3c-4.6-8.7-1.3-18.2-2.9-27.2c0.7-5.3,2.2-10.2,7-13.5c0.3,0.3,0.7,0.6,1.1,0.9
			c3.3,2.9,2.5,6.6,1.6,10.2c-2.1,8.8-3.4,17.8-4.5,26.8C242.9,456.5,242.1,457.5,241.1,458.3z"/>
		<path id="XMLID_96_" class="st100" d="M294.7,418.3c4.5,2.2,9,4.3,13.5,6.5c1.8,3.8,0.4,6.7-2.8,9c-19.7,9.7-34.1,26.6-52.2,38.6
			c-1.9,1.3-3.2,3.1-5.8,1.8c-4.1-3.7-4.3-8.6-4-13.6c3.6-8.9,11.1-14.2,17.9-20.3c7.3-6.5,15.7-11.7,22.6-18.5
			C287.2,418.7,290.8,418.2,294.7,418.3z"/>
		<path id="XMLID_95_" class="st101" d="M294.7,418.3c-15.2,13.1-30.4,26.2-45.6,39.4c-1.7,1.5-2.8,3.6-5.6,2.9
			c-0.8-0.8-1.7-1.5-2.5-2.3c0.1-0.8,0.1-1.5,0.2-2.3c2.3-24.6,23-31.9,40.1-42.6C286.4,413.5,290.5,416,294.7,418.3z"/>
		<path id="XMLID_94_" class="st41" d="M303.8,431.2c1.5-2.2,2.9-4.3,4.4-6.5c5.2,2,10.2,4.6,14.3,8.5
			c-25.1,16.9-51.1,32.7-68.2,58.8c-0.6-1.6-1.2-3.2-1.9-4.8c-3.5-10,0.6-14.9,9-21.3C276,455,290.9,444.2,303.8,431.2z"/>
		<path id="XMLID_93_" class="st102" d="M303.8,431.2c0.9,5.9-3.8,8.9-7.1,11.8c-10.4,9-21.1,17.6-32.2,25.7
			c-6.6,4.8-13.7,8.7-12,18.6c-1.7-4.4-3.3-8.7-5-13.1C264.7,457.7,281.2,440.5,303.8,431.2z"/>
		<path id="XMLID_92_" class="st103" d="M281.3,413.4c-0.9,4.7-3.6,8.1-7.5,10.6c-13.1,8.3-25.3,17.7-32.6,32
			c0-12.7-2.7-25.9,5-37.6C256.9,409.2,268.8,409.1,281.3,413.4z"/>
		<path id="XMLID_91_" class="st5" d="M317.6,408.6c2.2-1.4,5.3-2.3,6.4-4.3c11-19.7,31.6-27.8,48.1-40.9
			c22.3-17.7,47.2-31.3,70-48.1c10.9-8.1,24-13.3,34.9-21.9c3-2.3,6.1-4.4,6.9-8.5c5.3,2.3,10.5,4.5,15.8,6.8
			c-4.7,14.1-19.1,15.9-29.5,22.4c-7.5,4.7-15.4,8.8-23,13.7c-31.6,20.2-63.5,39.9-91.4,65.4c-6,5.5-13.4,9.5-20.4,13.8
			c-5,3.1-5.5,6.6-2.3,11.1C327.9,415,322.8,411.8,317.6,408.6z"/>
		<path id="XMLID_90_" class="st104" d="M549.3,460.5c0,0.8,0,1.5,0,2.3c-0.3,3.5-1.4,6.7-4.6,8.4c-21.8,11.4-39.6,28.7-60.7,41
			c-16.9-5.3-35-5-51.7-11.1c0.2-3.9,1.4-7.5,4.4-10c22.9-19.1,44.7-39.7,71.3-54c7.7-4.1,13.1-4.2,19.7,2.3
			C534.8,446.5,542.8,452.7,549.3,460.5z"/>
		<path id="XMLID_89_" class="st105" d="M483.9,512.2c2.7-9.6,11.6-13.5,18.4-19.1c14.5-11.9,30-22.2,47-30.4
			c10,8.3,17.9,18.3,24.8,29.2c-6.7,4.7-13.3,9.6-20.2,14c-7.8,4.9-15.5,10.6-25.7,6.9c-0.4,5.1,8.5,3.6,5,8.7
			c-2.1,3.1-6.2,0.7-9.4,0.1c-9.5-1.9-18.8-4.9-28.6-4.8C491.4,515.3,487.7,513.7,483.9,512.2z"/>
	</g>
</g>
<g id="Layer_4">
	<linearGradient id="XMLID_7_" gradientUnits="userSpaceOnUse" x1="907.9755" y1="881.192" x2="907.9755" y2="539.7174">
		<stop  offset="0" style="stop-color:#27348B"/>
		<stop  offset="0.5074" style="stop-color:#D1CFE9"/>
		<stop  offset="0.7162" style="stop-color:#827FBC"/>
		<stop  offset="0.9112" style="stop-color:#404596"/>
		<stop  offset="1" style="stop-color:#27348B"/>
	</linearGradient>
	<path id="XMLID_248_" class="st106" d="M828,544.5h69.7l-7.4,32.7c16.9-23.2,37.5-37.5,66-37.5c50.7,0,90.8,41.7,90.8,107.7
		c0,78.1-50.1,126.7-106.6,126.7c-34.3,0-59.6-14.2-75.5-43.8l-26.4,150.9h-69.7L828,544.5z M974.2,651.1
		c0-31.7-17.4-50.7-45.9-50.7c-31.1,0-52.3,25.3-52.3,61.2c0,31.7,16.9,52.3,45.9,52.3C954.2,713.9,974.2,689.1,974.2,651.1z"/>
</g>
<g id="Layer_3">
	<g id="XMLID_1_">
		<path id="XMLID_87_" class="st107" d="M791.1,881.3c-2-1.6-4-3.1-6-4.7c-0.5-2.6-2.2-4-4.6-4.8c-14.2,1.2-23,9.1-30.9,20.8
			c-11.2,16.8-20.7,34.9-38.1,47.3c-9.7,6.9-16.4,18.2-24.7,27.2c-7.8,8.5-13.9,18.5-23.6,25.2c-1.9,1.3-2.5,3.7-2.1,6.1
			c6.9,8.9,16.8,12.5,27,15.6c4.8,0.1,9.5,1.6,14.5,1.3c7.9-0.5,13.8-3,15-11.8c0.5-3.5,2.8-6,4.9-8.6c21.2-27,44.1-52.6,63.6-80.9
			c5.1-7.4,11-14.2,12.5-23.5C798.8,885.4,792.9,885.1,791.1,881.3z"/>
		<path id="XMLID_86_" class="st108" d="M662.7,997.3c6.1,0.6,9.1-1.6,13.4-7.1c14.3-18.3,28.2-37.2,46.8-51.9
			c6.9-5.4,11.5-13.4,17-20.4c11.8-15.2,18.1-35.6,38.5-43.2c8.1-9,20.9-12.9,26.4-24.7c-3.2-4.8-8.4-3.9-13-4.6
			c-9.8,0.1-19.2-2.3-28.7-4.2c-7.7,0.3-11.4,6.2-15.2,11.5c-9.3,13-16.5,27.5-27.1,39.8c-20.3,23.3-37.5,49.8-61.5,69.2
			c-13.4,10.9-18.2,18.5-7.4,32.5C654.9,997.6,658.3,999.2,662.7,997.3z"/>
		<path id="XMLID_85_" class="st6" d="M1074.7,761.5c2.5-6.7,1.9-13.6,1.1-20.5c-3.7-1.8-6.5,0.3-7,3.2c-2.6,15-15.8,19.9-25.8,27.8
			c-12.5,9.9-27.2,16.6-39.7,26.7c-8.1,6.5-19.1,8.2-27.7,14.1c-3.5,1.3-5.6,3.9-5.5,7.6c0.2,10.5-6.2,16.7-14.6,20.6
			c-14.7,6.9-27.7,17.6-44.2,21c-5.7,1.2-8.8,6.4-12.5,10.4c-1.2,5.1-2.5,10.2-2.1,15.4c4.8,19.6,5.4,19.4,23.9,10.2
			c15.1-7.5,29-17.1,44.3-24c6.8-3,11.7-7.6,13.3-15.4c1.5-7.3,6.4-12.2,12.7-16.3c25-16.1,50.8-31,76-46.9
			C1072,784.7,1070.5,772.5,1074.7,761.5z"/>
		<path id="XMLID_84_" class="st87" d="M813.2,1040.3c12.8-3.6,22.6-12.2,33-19.7c22.2-13.3,32.6-35.2,41.2-57.9
			c7.8-20.7,11.4-42.4,12.6-64.4c0.2-4.2-0.5-8.3-1.5-12.3c-4.8-4.4-8.1-1.5-10.3,2.7c-2.9,5.4-6.7,10.3-7.9,16.8
			c-2,10.7-9.9,18.4-16.3,26.8c-8.6,24.8-20.3,47.7-38,67.4c-1.3,7.3-1.3,15-12.1,15.5c-4.7,0.2-11.7,14.4-10.5,19.4
			C804.4,1039.8,807.9,1041.8,813.2,1040.3z"/>
		<path id="XMLID_83_" class="st69" d="M791.1,881.3c-0.5,4.3,4.2,4.9,5.6,7.9c4.5,11.1,15.5,12.8,24.8,17c10.6,7.8,11,8.1,3.2,19
			c-15.3,21.5-30.3,43.3-48.2,62.7c-3.8,4.1-7.3,8.5-10.3,13.2c-4.5,7.1-10.2,12.8-18.2,15.9c-4,1.6-7.9,3.3-5.4,8.9
			c1.7,1.9,4,2.2,6.3,2.6c14.2,2.8,27.8,0.7,41-4.9c2.2-6.6,6.9-11,12-15.8c10.4-9.6,17.1-22.5,26.2-33.3
			c9.1-10.7,17.3-22.1,26.7-32.7c6.4-7.2,9.2-19.1,10.4-29.9c-1-1.3-2.6-1.9-3.9-2.9C835.9,905.4,813.6,893,791.1,881.3z"/>
		<path id="XMLID_82_" class="st28" d="M977.2,816c13-4.3,25-9.9,36.6-17.9c12.1-8.3,23.8-17.6,37-24.3c13.8-7,22.1-17.8,25-32.8
			c0.9-7.1-2.8-10.1-9.4-10.5c-2.9,3.9-7.9,5-11.2,8.4c-17.1,18.1-37,32.4-58.9,44.3c-10,5.4-19.3,12.6-24.9,23.2
			C971.6,810.6,972.7,814.3,977.2,816z"/>
		<path id="XMLID_81_" class="st55" d="M616.9,789.5c-4.4-2-8.8-4.1-13.2-6c-16.1-6.9-14.9-12.4-19.5,9.5c-5.1,26-9,52-6.5,78.6
			c2.9,2.5,5,1,6.1-1.7c1.8-4.5,4.6-8.8,4.6-13.8c0.1-11.3,5.6-18.5,15-24.5c10.1-6.4,17.2-16.6,26.9-23.7c2.9-2.1,3.3-5.7,2.6-9.3
			C628.7,793.4,622,792.7,616.9,789.5z"/>
		<path id="XMLID_80_" class="st4" d="M943.4,798.6c-22.2,14.7-44.5,29.5-66.7,44.3c-3.1,2.1-6.4,4.4-3.9,9c3.2,0.4,5.4,3,8.7,3.3
			c5.2,1.4,9.7,5.8,15.7,3.7c3.3-0.9,6.7-1.4,9.7-3.2c8.3-7.6,18.5-13.1,25.2-22.6c3.4-7,6.9-13.8,11.6-20
			C947.1,808.5,949.9,803.3,943.4,798.6z"/>
		<path id="XMLID_79_" class="st109" d="M861.5,909.2c0.7,0.8,1.4,1.5,2.2,2.3c1.9,11.5-5.2,20.7-8.2,30.9c-0.5,1.8-2,2.6-2.7,4.3
			c-11.2,29.7-30.9,52-58.6,67.3c-2.3,1.3-5,2.9-5.3,6.2c-12.6,5.1-25.8,6.7-39.3,5.3c-1.4,0.5-3.2,0.9-4.3,0.1
			c-13-9.2-28.4-9.7-43.2-12c-4-0.6-7.3-4.1-11.7-2.7c-10-2.8-18.8-8.3-27.6-13.6c-2.8-1.9-5.7-3.7-8.5-5.6
			c-3.9-7.1-11-11-16.8-16.1c-3.4-2.9-8.2-3.6-11.5,1.3c-1.7,5.4,2.1,8.2,5.6,10.9c5.2,4.1,10.4,8.3,15.7,12.2
			c13.3,4.8,24.5,13.8,37.5,19.1c13.3,7.7,28.3,9.8,42.8,13.5c8.7,1.2,17.4,0.4,26.1,2.8c8,2.2,16.3-0.1,24.1-3
			c17.4,0,29.2-12.6,43.4-19.7c3.8-1.9,5.3-7,7.3-11c19.1-19.6,31.2-43.1,38.8-69.1c7.4-12.1,10.3-25.5,11.3-39.4
			c0.4-5,0.5-9.9-5.5-12.1c-4.2,4.7-3.9,10.8-5,16.5C867.2,902.3,867.1,907.3,861.5,909.2z"/>
		<path id="XMLID_78_" class="st110" d="M873.2,881.2c1.9,17.6-3.7,34.3-5.8,51.5c15.3-10.1,18.9-27.3,25.8-42.4c1-2.1,2-3.9,4-5.1
			c3.9-7.7,2.9-16.5,5.4-24.5c-0.4-2.8-1.3-5.2-4.6-5.5c-6.4,0.5-11.6-3.6-17.5-4.8c-3.8,6.2-4.8,13.1-5.7,20.1
			C874.2,874,873.7,877.6,873.2,881.2z"/>
		<path id="XMLID_77_" class="st111" d="M943.4,798.6c-2,12-11.9,20.6-14.1,32.5c1.5,1.4,3.6,2.1,5.1,0.8
			c11.8-9.9,27.6-14.1,37.8-26.2c3.6-4.3,9.2-6.3,12.5-10.9c0.5-4.4,1.9-7.7,5.9-10.8c6.7-5,5.9-10.2-1.1-16.7
			C973.1,776.3,958.4,787.7,943.4,798.6z"/>
		<path id="XMLID_76_" class="st7" d="M828.5,1001.8c-14.9,12.1-31.1,21.7-49.9,26.4c-4.5,4.8-9.1,9.4-14.3,13.5
			c-4.5,3.6-6,7.6,2.6,7.3c16.2,1,31.6-1.9,46.3-8.8c-2.2-1.8-8.3-3.6-4.4-6.2c5-3.3-1.3-12,8.9-12.9
			C827.1,1020.5,829.9,1011.1,828.5,1001.8z"/>
		<path id="XMLID_75_" class="st32" d="M989.5,767.5c0.8,6.2,0.6,11.7-5.3,15.9c-4,2.8-3.9,6.9-1,10.9c3,1.6,4.9-0.8,6.8-2.2
			c13.3-9.9,27.6-18.3,40.8-28.3c0.1-7.5,7.2-16-2.8-22.2C1014.2,748.8,1001.8,758.1,989.5,767.5z"/>
		<path id="XMLID_74_" class="st88" d="M1027.9,741.5c-0.3,7.2-2.6,14.4,1.1,21.3c12.8-2.7,21-12.7,30.8-20.1
			c1.6-4.4,11.7-4.2,6.6-12.2C1050.7,723.9,1038.9,731.4,1027.9,741.5z"/>
		<path id="XMLID_73_" class="st70" d="M766.9,1049c-1.3-1-2.3-2.7-0.1-3c10.9-1.5,12.1-9.1,11.8-17.9c-16.7,2.9-33.3,2.7-50,0.3
			c-1.2-1.2-2.7-1.4-4.3-1.2c-1.8,1.3-2.2,3.6-0.8,4.6c4.6,3.4,2.4,8,2.6,12.1l-0.5,0.5c9.7,6.3,20.2,7.9,31.5,5.2
			C760.3,1049.5,763.6,1049.3,766.9,1049z"/>
		<path id="XMLID_72_" class="st60" d="M616.9,789.5c3.6,4.7,9.7,5.7,14.1,9.3c1.2,8.2,9.3,7.1,14,10.7
			c11.9,8.2,26.1,10.4,39.2,15.4c12.8,7.9,27.9,8.5,41.7,13.4c11.4,3.6,22.2,11.4,34.9,4.3c10.4,0.7,20.5,5.2,31.2,2.8
			C736,835,682.4,817.5,630.6,794C626.2,792,622,789.4,616.9,789.5z"/>
		<path id="XMLID_71_" class="st24" d="M580.3,872.5c-3.2-21.3,1-42.1,3.3-63.1c0.6-5.5,3-10.9,0.5-16.4c-3.6,2.6-5.3,6.6-5.6,10.6
			c-3.4,37.1-7.4,74.2-5.4,111.5c4.4-1.4,5.3-5.7,7.2-9.1C580.4,894.8,586,883.7,580.3,872.5z"/>
		<path id="XMLID_70_" class="st112" d="M881.9,997.1c1.7-1.3,3.5-2.7,5.2-4c6.2-9.8,17.6-13.4,25.3-21.5c2.3-2.4,5.4-3.9,7.1-7
			c1.9-3.7,7-6.8,2.3-11.7c-3.8-3.8-8.2-2.6-12.5-0.7c-2.7,1.2-6.2,2.4-7.6,4.5c-4.1,5.9-9.9,6.2-16,6.5
			c-4.9,10.2-10.3,20.1-14.3,30.7C873.6,999.6,878.6,995.7,881.9,997.1z"/>
		<path id="XMLID_69_" class="st39" d="M724.6,1028.6c1.3,0,2.6,0,3.9,0c-14.4-4.7-28.8-9.3-43.3-14c-5.6,1-13.5-3.2-14.9,6.8
			c9.9,6.1,20,11.9,31.5,14.7C711,1038.1,719.2,1037.7,724.6,1028.6z"/>
		<path id="XMLID_68_" class="st55" d="M872.9,995.2c4.9-10.6,9.7-21.1,14.6-31.7c6.1-3.8,6.7-10.5,8.8-16.4
			c1.9-7.6,6.3-14.3,8.1-21.9c0-1.3-0.2-2.6-0.6-3.9c-1-8.8-1.4-17.6-2.7-26.4c-2.3-1.1-3.7-0.8-3.5,2.1c-3.4,27.1-8.3,53.9-19.9,79
			c-7.8,16.8-18.5,31.4-31.4,44.6c7.5,3.2,8.8-6.7,14.6-7c2.1-4,4.9-7.4,8.5-10.1C872,1001.5,874.7,999.3,872.9,995.2z"/>
		<path id="XMLID_67_" class="st56" d="M649.5,994.5c-7.3-5.5-14.6-11.1-21.9-16.6c-1.7-6.2-2.9-13.4-12.2-7.7
			c-1.9,4.6-1.4,9.4-1.2,14.1c0.4,1.1,1.1,2.1,1.9,2.9c11.4,3.6,18.7,13.7,29.3,18.7c1.5-0.6,2.9-0.5,4.3,0.2c2.5,1.3,5.4,2,7-0.7
			c2-3.5-1.2-5.3-3.5-7.1C651.9,997.2,650,996.5,649.5,994.5z"/>
		<path id="XMLID_66_" class="st113" d="M576.8,906.1c-1.3,3-2.5,6-3.8,8.9c-1.1,28.9,0.6,57.7,2.3,86.5c0.2,3.2,0.2,6.8,2.9,9.4
			c3.7-3.7,6.1-8.1,6.7-13.4c0.1-2.5,0.1-5,0.6-7.4c3.1-6.8-1.8-13.2-1.2-19.9c-4.8-16.7-1.7-33.9-3.5-50.8
			C580.3,914.7,581.1,909.7,576.8,906.1z"/>
		<path id="XMLID_65_" class="st25" d="M649.5,994.5c1.5,2.8,3,5.6,4.6,8.5c-2.1,3.2-6.1,1-8.6,2.9c8.1,5.5,15.6,11.8,24.9,15.4
			c4.9-2.5,11.5-1.2,14.9-6.8C673.4,1007.8,661.4,1001.2,649.5,994.5z"/>
		<path id="XMLID_64_" class="st54" d="M975.5,925.8c26.8-18.9,53.2-38.2,68.4-68.6c1.3-2,0.4-3.4-1.3-4.5c-6.4-1.9-8.2,3.7-11.3,7
			c-7,15-19.9,24.5-32.2,34.5c-3.2,7-9.6,10.4-15.7,14.4c-5.2,3.4-10.6,7-10,14.6C973.8,924.3,974.5,925.2,975.5,925.8z"/>
		<path id="XMLID_63_" class="st72" d="M724.6,1028.6c-9.5-3.4-14,8.5-22.7,7.4c7.7,3.8,15.5,7,24.1,8.1c0.3-0.1,0.7-0.3,1-0.4
			c5.2-1.6,13.8-2.2,13.9-6.9c0.1-6.4-8.9-3.9-13.5-6.4C726.5,1029.8,725.6,1029.1,724.6,1028.6z"/>
		<path id="XMLID_62_" class="st50" d="M804.9,850.1c-9.6,3.9-17.3,11.1-26.2,16.1c-5.2,2.9-2.7,5.7-0.2,8.6
			c2.2,0.6,4.5,1.3,6.7,1.9C793.7,869.3,805.2,864.1,804.9,850.1z"/>
		<path id="XMLID_61_" class="st114" d="M1041.7,853.8c0.7,1.1,1.5,2.3,2.2,3.4c19-29.1,26.8-61.8,30.8-95.7
			c-6,10.7-3.7,23.9-9.9,34.5c-7.7,3.2-7.4,11.2-10.3,17.3c-2.3,4.9-4.4,10.1-5.6,15.5c-0.5,4.6-3.6,7.8-5.8,11.6
			C1040.8,844.6,1039,849,1041.7,853.8z"/>
		<path id="XMLID_60_" class="st22" d="M916.7,963.7c-5.4,9.7-16.5,12.5-23.9,19.8c-2.7,2.7-7.9,4-5.7,9.6c19-14.4,38-28.7,57-43.1
			c1.2-1.8,0.3-3.1-1.1-4.2c-8-2.8-13.7,0.5-17.4,7.2C923.4,957.3,920.7,960.9,916.7,963.7z"/>
		<path id="XMLID_59_" class="st92" d="M616.2,987.2c0-0.7,0.1-1.4,0.2-2c-1.9-4.8-5.4-7.8-10.2-9.5c-9.8,1.4-16.9,6.5-20.9,15.6
			c-0.1,7.9,3.6,9.8,10.4,6.4c2.6-1.3,5.3-2.4,8.2-2.9C608,992.3,612.1,989.7,616.2,987.2z"/>
		<path id="XMLID_58_" class="st31" d="M603.8,994.8c-4.5-5.2-11.5,5.6-15.6-2.5c-3.8-2.5-5.4,0.1-6.9,2.9c-1,5.2-2.1,10.5-3.1,15.7
			C587.4,1006.6,596.1,1001.5,603.8,994.8z"/>
		<path id="XMLID_57_" class="st8" d="M942.1,947.1c0.7,1,1.3,1.9,2,2.9c10.5-8.1,20.9-16.1,31.4-24.2c0.1-1.1,0.1-2.1,0.2-3.2
			c-1.3-2.1-3.8-3.6-5.6-2.5c-10.6,6.2-22.1,11.5-28.7,22.8C940.8,944.2,941.4,945.8,942.1,947.1z"/>
		<path id="XMLID_56_" class="st23" d="M874.7,870.5c1.5-2.5,2.4-6.1,4.6-7.3c7-4,4.2-8.2,1.1-12.7c-3.2-2.7-5.7-2.3-7.6,1.5
			C873.4,858.1,874,864.3,874.7,870.5z"/>
		<path id="XMLID_55_" class="st115" d="M872.9,995.2c-3.7,6.3-11.2,10.2-12,18.5c7-5.5,14-11,21.1-16.5
			C879.7,993,876.5,992.9,872.9,995.2z"/>
		<path id="XMLID_54_" class="st66" d="M690.3,1010.9c18.9,8.1,38,16,59.3,14.6c-2.3-0.5-4.5-0.9-6.8-1.4
			c-8.2-7.1-5.3-11.7,1.6-18.8c23.3-24,46.3-48.3,64.4-76.7c3.6-5.7,8.3-10.6,13.2-15.2c3.3-3.1,5.3-6.4,2.1-10.7
			c-9.5-3.7-16.9-11.6-27.3-13.7c-11,15.6-21.5,31.6-33.2,46.6c-15.1,19.4-31.2,38.1-47,57.1c-1.2,1.4-3.9,2.6-3.9,3.9
			C712.5,1013.2,700.9,1011.2,690.3,1010.9z"/>
		<path id="XMLID_53_" class="st42" d="M581.3,995.2c2.3-1,4.6-1.9,6.9-2.9c5.6-4.9,11-10.3,18.4-12.5c5.8,0.6,9.5-1.5,10.1-7.7
			c5.8-2.2,6.8,4.7,10.9,5.8c10.6,1.2,16.8,11,26.6,13.8c4.9-7.6-0.8-10.3-5.8-12.4c45-39.8,82-85.5,112.3-136.7
			c-11.7-2.7-23.4-5.5-35.1-8.2c-13.9-1.4-19.6,8.1-25.5,18.3c-5.8,10-12.5,19.7-21.3,27.4c-14.4,12.7-24.6,29.1-38.6,42.2
			c-12.3,11.6-24.8,23-38.4,32.8c-12.7,9.1-24.7,17.5-22.1,35.6C580.3,992.2,580.8,993.7,581.3,995.2z"/>
		<path id="XMLID_52_" class="st40" d="M1052.5,830.6c6.3-10.8,10.5-22.3,12.3-34.6c-4.2-2.9-7.6-1-11.3,1.3
			c-22.2,13.7-44.4,27.5-66.8,40.8c-7.3,4.3-11.8,10.1-13.6,18.2c-1,4.5-2.3,8.7-6.7,11.1c-20.4,10.8-40.8,21.6-61.1,32.4
			c-4.4-3.4-1.1-8.4-3.5-11.7c-2.4,1.9-2.8,4.2-1.5,6.9c-0.3,9.1-3.3,18-2.2,27.3c10,3,18.4-1.3,26.6-6.1
			c12.3-7.2,24.3-14.8,37.1-21.2c2.4-1.2,5-2.4,6.5-4.4c13.7-19.9,37.4-25.3,55.5-38.9C1033.2,844.6,1043.4,838.4,1052.5,830.6z"/>
		<path id="XMLID_51_" class="st61" d="M897.9,855.2c0.5,1.8,1.1,3.7,1.6,5.5c2.5,3.5-4.5,8.8,2.3,11.5
			c19.7-6.1,37.5-16.3,55.8-25.4c13.1-6.5,19-16.7,19.5-30.8c-1-3.2-2-6.4-3-9.6c-9.7,1-15.7,8.6-23.4,13.1
			c-13.7,8.1-26.4,17.8-39.4,27.1c-2.3,1.6-4.3,4.4-7.8,3.1C900.9,850.7,899,852.5,897.9,855.2z"/>
		<path id="XMLID_50_" class="st48" d="M901.8,872.2c-0.8-3.8-1.5-7.7-2.3-11.5c-2.9,8-0.4,16.4-2.4,24.5c0.1,4,0.2,7.9,0.3,11.9
			c0.9-0.7,1.8-1.4,2.7-2c0.5-2.3,1-4.6,1.5-6.9C899.5,882.8,901.5,877.5,901.8,872.2z"/>
		<path id="XMLID_49_" class="st116" d="M824,902.9c-34.4,38.1-60.6,83.4-103.3,115.4c7.3,5.1,15.1,4.2,22.1,5.9
			c12.7-2.7,21.1-10.2,29.1-20.6c16.8-21.8,34.5-43.1,50.8-65.4c4.4-6,8.7-12.2,13.4-18c7.4-9.4,7.3-10.2-3.6-14.3
			C829.6,904.8,826.8,903.9,824,902.9z"/>
		<path id="XMLID_48_" class="st83" d="M788.9,1020.3c39.7-13.7,60.3-44.2,72.5-82.1c1.7-5.3,3.6-10.6,4.7-16
			c0.8-3.7,3-8.2-2.5-10.6c-5.2,10.5-8.5,21.5-17,30.9c-15.5,17-28.3,36.5-42.4,54.8c-3.9,5-8.5,9.3-12.8,14
			C789,1013.8,784.7,1015.8,788.9,1020.3z"/>
		<path id="XMLID_47_" class="st48" d="M903.6,849.7c5.4,3.2,8.3-1.7,11.7-4c19.7-13,39.2-26.2,58.8-39.3
			c24.4-20.4,52.6-35.5,77.7-55.1c3-2.4,7.8-3.4,7.9-8.6c-10.3,6.7-20.5,13.4-30.8,20.1c-15.3,10.5-30.6,21-45.8,31.5
			c-16.8,14-36,24.4-53.9,36.9C921.4,838.2,912.7,844.2,903.6,849.7z"/>
		<path id="XMLID_46_" class="st11" d="M576.8,906.1c0.1,22-0.4,44,1.5,66c7.1-0.5,8-5.9,8.1-11.1c0.3-9,0.5-18-1.4-26.9
			c-0.8-3.8-0.5-7.4,0.4-11.1c2.5-7.3,1.6-15,0.8-22.2c-2.5-20.8,8.8-33.9,23.9-44.9c11.7-8.5,20.5-19.3,28-31.4
			c2.2-3.5,4.7-6.7,7.7-9.6c3.3-3,4.1-6.2,0-9.3c-5-2.3-10-4.6-15-6.9c-13.1,10.9-23.7,24.7-38.8,33.5c-5.8,3.4-9.7,9.5-9.3,17
			c0.4,8-1.4,15.6-2.6,23.4C577.2,883.5,577.7,894.9,576.8,906.1z"/>
		<path id="XMLID_45_" class="st68" d="M581.7,920.5c-2.7,12.5-0.8,25.2-0.6,37.7c0.1,4.9,0.4,9.7-2.7,13.9
			c0.5,6.2,0.9,12.4,1.4,18.6c-0.1-15.6,12.5-20.4,22.5-28.5c22.9-18.5,45.4-37.5,64.4-60.5c15.6-19,33.9-35.8,45.8-57.8
			c2.6-4.8,7.2-4.7,11.8-4.6c6.2,0.1,3.7-2.4,1.5-4.9c-13.7-4.5-27.4-9.1-41.1-13.6c-14-0.4-22.3,7.2-27.5,19.3
			c-1,2.4-2.6,4.6-4.6,6.3c-22.2,18.1-35.9,44.7-60.7,60.2C586.9,909.5,583.3,914.6,581.7,920.5z"/>
		<path id="XMLID_44_" class="st45" d="M581.7,920.5c3.9-0.6,3,5,7.6,5c0.7-14,12.5-19.5,21.8-27.4c7.4-6.2,15.1-12.8,20.1-20.8
			c9.4-15,25.5-23.7,34-39.4c3.1-5.8,8-11.6,16.6-11c4.7,0.3,4.5-2.8,2.7-6c-12.4-6.1-25.5-10.7-38.6-15.2
			c-15.8,21.8-32.6,42.6-54,59.2c-7.5,5.8-11,12.6-10.5,22.1C582,898.1,579.4,909.3,581.7,920.5z"/>
		<path id="XMLID_43_" class="st117" d="M942.1,947.1c10.3-9.4,21.5-17.5,33.6-24.5c9-8.3,18-16.6,27-24.9
			c-2.1-9.5-7.7-5.8-13.1-3.6c-19.1,7.7-35.2,20.7-53.1,30.5c-14.3,7.9-28,17-43.9,21.5c-1.7,5.8-3.5,11.6-5.2,17.3
			c2.1,9.1,5,10.4,11.3,3.6c3.7-4,8.6-5.8,12.4-9.4c1.8-1.7,5.1-3.4,7.2-1.7c3.2,2.7-1.5,5-1.6,7.7
			C926.4,960.1,932.7,951.2,942.1,947.1z"/>
		<path id="XMLID_42_" class="st24" d="M1052.5,830.6c-9.1-0.9-15.5,5.2-22.2,9.6c-15,9.8-29.3,20.7-46.2,27.4c-3.4,1.3-7,3.6-9,6.5
			c-15.5,21.5-40.9,28-61.7,41.4c-3,1.9-6.5,3.9-11.4,1.4c-4.4-2.3-2.2,3.8-4,5.4c-0.2,0.5-0.2,1-0.1,1.6c1.1,1.3,0.6,2.8,0.6,4.2
			c0.3,4.9-5,11,0,14.4c4.7,3.1,9.9-2.3,14.1-4.6c19.6-10.9,38.6-23.3,58.2-34c19-10.4,36.1-23.5,55-33.7c3.3-1.8,5.6-4.9,9.2-6.2
			c2.2-3.4,4.4-6.8,6.6-10.3C1046,846.4,1050.6,839.1,1052.5,830.6z"/>
		<path id="XMLID_3_" class="st118" d="M1035.1,864.1c-14.2,1.3-25.4,8.6-36.9,16.5c-20.5,14.1-41.5,27.4-63.4,39.2
			c-11.6,6.3-22.1,15.1-36.1,16.9c-0.9-3.4,1.8-8.4-0.8-12.8c-2,7.4-1.5,15.3-5.3,22.3c0.4,2.9,0.7,5.9,1.3,10.2
			c5.7-11.9,18.2-10.5,27-16.1c22.5-14.4,45.3-28.4,69.2-40.4c4.1-2,7.9-4.3,12.6-2.1C1017.1,890,1026.1,877,1035.1,864.1z"/>
		<path id="XMLID_2_" class="st119" d="M616.8,972.1c-3.4,2.6-6.7,5.1-10.1,7.7c3.2,1.8,6.5,3.6,9.7,5.3
			C617.4,980.8,619.1,976.5,616.8,972.1z"/>
	</g>
</g>
<g id="Layer_2">
	<linearGradient id="XMLID_11_" gradientUnits="userSpaceOnUse" x1="682.0235" y1="886.4719" x2="682.0235" y2="539.7174">
		<stop  offset="0" style="stop-color:#27348B"/>
		<stop  offset="0.5074" style="stop-color:#D1CFE9"/>
		<stop  offset="0.7162" style="stop-color:#827FBC"/>
		<stop  offset="0.9112" style="stop-color:#404596"/>
		<stop  offset="1" style="stop-color:#27348B"/>
	</linearGradient>
	<path id="XMLID_8_" class="st120" d="M541.4,843.2l46.4-44.9c14.3,16.4,32.7,29,63.3,29c32.2,0,54.9-18.5,62.3-58.6l5.3-29.6
		c-14.2,20.1-32.2,34.8-63.9,34.8c-50.1,0-90.8-41.7-90.8-107.7c0-81.3,50.7-126.7,109.2-126.7c32.2,0,59.6,11.6,74.9,40.6l4.8-35.9
		h69.7l-41.2,234.3c-13.7,79.7-67,107.7-130.9,107.7C595.7,886.5,558.3,863.2,541.4,843.2z M735.1,652.7c0-31.7-16.9-52.2-45.9-52.2
		c-32.2,0-52.2,24.8-52.2,62.8c0,31.7,17.4,50.7,45.9,50.7C714,713.9,735.1,688.6,735.1,652.7z"/>
</g>
</svg>
