<?xml version="1.0" encoding="utf-8"?>
<!-- Generator: Adobe Illustrator 19.0.0, SVG Export Plug-In . SVG Version: 6.00 Build 0)  -->
<svg version="1.1" xmlns="http://www.w3.org/2000/svg" xmlns:xlink="http://www.w3.org/1999/xlink" x="0px" y="0px"
	 viewBox="0 0 141.7 141.7" style="enable-background:new 0 0 141.7 141.7;" xml:space="preserve">
<style type="text/css">
	.st0{fill:#111111;stroke:url(#XMLID_3_);stroke-miterlimit:10;}
</style>
<g id="Layer_2">
	
		<radialGradient id="XMLID_3_" cx="70.865" cy="70.865" r="60.0612" gradientTransform="matrix(1 0 0 6 0 0)" gradientUnits="userSpaceOnUse">
		<stop  offset="0" style="stop-color:#FFFFFF"/>
		<stop  offset="0.3726" style="stop-color:#FDFDFD"/>
		<stop  offset="0.5069" style="stop-color:#F6F6F6"/>
		<stop  offset="0.6026" style="stop-color:#EBEBEB"/>
		<stop  offset="0.68" style="stop-color:#DADADA"/>
		<stop  offset="0.7463" style="stop-color:#C4C4C4"/>
		<stop  offset="0.805" style="stop-color:#A8A8A8"/>
		<stop  offset="0.8581" style="stop-color:#888888"/>
		<stop  offset="0.9069" style="stop-color:#626262"/>
		<stop  offset="0.9523" style="stop-color:#373737"/>
		<stop  offset="0.9926" style="stop-color:#090909"/>
		<stop  offset="1" style="stop-color:#000000"/>
	</radialGradient>
	<path id="XMLID_2_" class="st0" d="M118.4,130.4H23.3c-6.6,0-12-5.4-12-12V23.3c0-6.6,5.4-12,12-12h95.1c6.6,0,12,5.4,12,12v95.1
		C130.4,125,125,130.4,118.4,130.4z"/>
</g>
<g id="Layer_1">
	<path id="XMLID_26_" d="M52.6,70.9c0-5.8,0-11.6,0-17.5c0-2.2,1.1-3.3,3.3-3.3c2.4,0,4.7,0,7.1,0c2.2,0,3.3,1.1,3.3,3.4
		c0,4.9,0,9.8,0,14.7c0,6.7,0,13.3,0,20c0,2.4-1,3.4-3.4,3.4c-2.4,0-4.8,0-7.2,0c-2,0-3.1-1.2-3.1-3.1
		C52.6,82.6,52.6,76.7,52.6,70.9z"/>
	<path id="XMLID_25_" d="M89.1,70.9c0,5.8,0,11.6,0,17.5c0,2.3-1.1,3.3-3.4,3.3c-2.4,0-4.8,0-7.3,0c-1.9,0-3-1.1-3-3.1
		c0-11.8,0-23.5,0-35.3c0-2.1,1.1-3.2,3.2-3.2c2.4,0,4.8,0,7.3,0c2.1,0,3.2,1.1,3.2,3.2C89.1,59.2,89.1,65,89.1,70.9
		C89.1,70.9,89.1,70.9,89.1,70.9z"/>
</g>
</svg>
