<?xml version="1.0" encoding="utf-8"?>
<!-- Generator: Adobe Illustrator 19.0.0, SVG Export Plug-In . SVG Version: 6.00 Build 0)  -->
<svg version="1.1" xmlns="http://www.w3.org/2000/svg" xmlns:xlink="http://www.w3.org/1999/xlink" x="0px" y="0px"
	 viewBox="0 0 141.7 141.7" style="enable-background:new 0 0 141.7 141.7;" xml:space="preserve">
<style type="text/css">
	.st0{fill:#111111;stroke:url(#XMLID_3_);stroke-miterlimit:10;}
</style>
<g id="Layer_2">
	
		<radialGradient id="XMLID_3_" cx="71.3325" cy="69.615" r="60.0612" gradientTransform="matrix(1 0 0 6 0 0)" gradientUnits="userSpaceOnUse">
		<stop  offset="0" style="stop-color:#FFFFFF"/>
		<stop  offset="0.3726" style="stop-color:#FDFDFD"/>
		<stop  offset="0.5069" style="stop-color:#F6F6F6"/>
		<stop  offset="0.6026" style="stop-color:#EBEBEB"/>
		<stop  offset="0.68" style="stop-color:#DADADA"/>
		<stop  offset="0.7463" style="stop-color:#C4C4C4"/>
		<stop  offset="0.805" style="stop-color:#A8A8A8"/>
		<stop  offset="0.8581" style="stop-color:#888888"/>
		<stop  offset="0.9069" style="stop-color:#626262"/>
		<stop  offset="0.9523" style="stop-color:#373737"/>
		<stop  offset="0.9926" style="stop-color:#090909"/>
		<stop  offset="1" style="stop-color:#000000"/>
	</radialGradient>
	<path id="XMLID_2_" class="st0" d="M118.9,129.2H23.8c-6.6,0-12-5.4-12-12V22.1c0-6.6,5.4-12,12-12h95.1c6.6,0,12,5.4,12,12v95.1
		C130.9,123.8,125.5,129.2,118.9,129.2z"/>
	<path id="XMLID_6_" d="M51.4,69.6c0-6.4,0-12.8,0-19.2c0-2,1-3.3,2.6-3.3c0.8,0,1.6,0.3,2.3,0.7C64,52.1,71.7,56.6,79.4,61
		c3.4,1.9,6.7,3.9,10.1,5.8c2.5,1.4,2.5,4.1,0,5.6c-11.1,6.4-22.2,12.8-33.3,19.3c-2.4,1.4-4.9-0.2-4.8-2.8
		C51.4,82.4,51.4,76,51.4,69.6z"/>
</g>
<g id="Layer_1">
</g>
</svg>
