<?xml version="1.0" encoding="utf-8"?>
<!-- Generator: Adobe Illustrator 19.0.0, SVG Export Plug-In . SVG Version: 6.00 Build 0)  -->
<svg version="1.1" id="Layer_1" xmlns="http://www.w3.org/2000/svg" xmlns:xlink="http://www.w3.org/1999/xlink" x="0px" y="0px"
	 viewBox="69 -69.9 141.7 141.7" style="enable-background:new 69 -69.9 141.7 141.7;" xml:space="preserve">
<style type="text/css">
	.st0{fill:#C1C1C1;stroke:url(#XMLID_3_);stroke-miterlimit:10;}
</style>
<g id="Layer_2">
	
		<radialGradient id="XMLID_3_" cx="139.85" cy="-57.405" r="60.0676" gradientTransform="matrix(1 0 0 -6 0 10.89)" gradientUnits="userSpaceOnUse">
		<stop  offset="0" style="stop-color:#FFFFFF"/>
		<stop  offset="0.3726" style="stop-color:#FDFDFD"/>
		<stop  offset="0.5069" style="stop-color:#F6F6F6"/>
		<stop  offset="0.6026" style="stop-color:#EBEBEB"/>
		<stop  offset="0.68" style="stop-color:#DADADA"/>
		<stop  offset="0.7463" style="stop-color:#C4C4C4"/>
		<stop  offset="0.805" style="stop-color:#A8A8A8"/>
		<stop  offset="0.8581" style="stop-color:#888888"/>
		<stop  offset="0.9069" style="stop-color:#626262"/>
		<stop  offset="0.9523" style="stop-color:#373737"/>
		<stop  offset="0.9926" style="stop-color:#090909"/>
		<stop  offset="1" style="stop-color:#000000"/>
	</radialGradient>
	<path id="XMLID_1_" class="st0" d="M187.4,60.5H92.3c-6.6,0-12-5.4-12-12v-95.1c0-6.6,5.4-12,12-12h95.1c6.6,0,12,5.4,12,12v95.1
		C199.4,55.1,194,60.5,187.4,60.5z"/>
</g>
<g id="Layer_1_1_">
	<path id="XMLID_6_" d="M104.8,0.9c0-6.4,0-12.8,0-19.2c0-2,1-3.3,2.6-3.3c0.8,0,1.6,0.3,2.3,0.7c7.7,4.4,15.4,8.8,23.1,13.3
		c3.4,1.9,6.7,3.9,10.1,5.8c2.5,1.4,2.5,4.1,0,5.6c-11.1,6.3-22.2,12.7-33.3,19.2c-2.4,1.4-4.9-0.2-4.8-2.8
		C104.9,13.8,104.8,7.4,104.8,0.9z"/>
	<path id="XMLID_5_" d="M142.3,0.9c0-6.4,0-12.8,0-19.2c0-2,1-3.3,2.6-3.3c0.8,0,1.6,0.3,2.3,0.7c7.7,4.4,15.4,8.8,23.1,13.3
		c3.4,1.9,6.7,3.9,10.1,5.8c2.5,1.4,2.5,4.1,0,5.6c-11.1,6.3-22.2,12.7-33.3,19.2c-2.4,1.4-4.9-0.2-4.8-2.8
		C142.4,13.8,142.3,7.4,142.3,0.9z"/>
</g>
</svg>
